<svg xmlns="http://www.w3.org/2000/svg" xmlns:xlink="http://www.w3.org/1999/xlink" width="800" zoomAndPan="magnify" viewBox="0 0 600 149.999998" height="200" preserveAspectRatio="xMidYMid meet" version="1.0"><defs><g/><clipPath id="9815004f5b"><path d="M 140 19 L 592.800781 19 L 592.800781 150 L 140 150 Z M 140 19 " clip-rule="nonzero"/></clipPath><clipPath id="5d1a255f22"><rect x="0" width="453" y="0" height="131"/></clipPath><clipPath id="dfc2a433ad"><path d="M 5 2.25 L 146.558594 2.25 L 146.558594 143 L 5 143 Z M 5 2.25 " clip-rule="nonzero"/></clipPath><clipPath id="745b80ff11"><path d="M 37.070312 77.1875 L 110 77.1875 L 110 122.796875 L 37.070312 122.796875 Z M 37.070312 77.1875 " clip-rule="nonzero"/></clipPath><clipPath id="9a2ed2e5c1"><path d="M 37.070312 77.1875 L 125.296875 77.1875 L 125.296875 122.796875 L 37.070312 122.796875 Z M 37.070312 77.1875 " clip-rule="nonzero"/></clipPath><clipPath id="5d9c5156e9"><path d="M 93.265625 122.035156 L 132 122.035156 L 132 144.355469 L 93.265625 144.355469 Z M 93.265625 122.035156 " clip-rule="nonzero"/></clipPath><clipPath id="47fdd812fb"><path d="M 93.265625 122.035156 L 146.941406 122.035156 L 146.941406 144.355469 L 93.265625 144.355469 Z M 93.265625 122.035156 " clip-rule="nonzero"/></clipPath><clipPath id="8490c3df0e"><path d="M 409.488281 40.152344 L 437.3125 40.152344 L 437.3125 67.976562 L 409.488281 67.976562 Z M 409.488281 40.152344 " clip-rule="nonzero"/></clipPath><clipPath id="7b86844889"><path d="M 492.652344 40.695312 L 520.480469 40.695312 L 520.480469 68.523438 L 492.652344 68.523438 Z M 492.652344 40.695312 " clip-rule="nonzero"/></clipPath><clipPath id="861fdaade5"><rect x="0" width="593" y="0" height="150"/></clipPath><clipPath id="7f58276445"><path d="M 39.21875 63 L 112.71875 63 L 112.71875 77 L 39.21875 77 Z M 39.21875 63 " clip-rule="nonzero"/></clipPath><clipPath id="5ad5d81d3b"><path d="M 57 55.800781 L 77 55.800781 L 77 75 L 57 75 Z M 57 55.800781 " clip-rule="nonzero"/></clipPath><clipPath id="8b39bc2978"><path d="M 75 55.800781 L 95 55.800781 L 95 75 L 75 75 Z M 75 55.800781 " clip-rule="nonzero"/></clipPath></defs><g transform="matrix(1, 0, 0, 1, 0, -0.000000000000007527)"><g clip-path="url(#861fdaade5)"><g clip-path="url(#9815004f5b)"><g transform="matrix(1, 0, 0, 1, 140, 19)"><g clip-path="url(#5d1a255f22)"><g fill="#064e3b" fill-opacity="1"><g transform="translate(0.927223, 123.016689)"><g><path d="M 48.984375 -7.09375 C 44.378906 -1.5 38.015625 1.296875 29.890625 1.296875 C 22.398438 1.296875 16.6875 -0.851562 12.75 -5.15625 C 8.8125 -9.46875 6.800781 -15.773438 6.71875 -24.078125 L 6.71875 -69.84375 L 25.359375 -69.84375 L 25.359375 -24.71875 C 25.359375 -17.445312 28.675781 -13.8125 35.3125 -13.8125 C 41.632812 -13.8125 45.976562 -16.003906 48.34375 -20.390625 L 48.34375 -69.84375 L 67.0625 -69.84375 L 67.0625 0 L 49.5 0 Z M 48.984375 -7.09375 "/></g></g><g transform="translate(74.898068, 123.016689)"><g><path d="M 46.40625 -52.34375 C 43.863281 -52.6875 41.625 -52.859375 39.6875 -52.859375 C 32.632812 -52.859375 28.007812 -50.472656 25.8125 -45.703125 L 25.8125 0 L 7.171875 0 L 7.171875 -69.84375 L 24.78125 -69.84375 L 25.296875 -61.515625 C 29.046875 -67.921875 34.234375 -71.125 40.859375 -71.125 C 42.921875 -71.125 44.859375 -70.847656 46.671875 -70.296875 Z M 46.40625 -52.34375 "/></g></g></g><g fill="#064e3b" fill-opacity="1"><g transform="translate(121.178257, 123.016689)"><g><path d="M 47.640625 0 C 46.773438 -1.675781 46.148438 -3.765625 45.765625 -6.265625 C 41.242188 -1.222656 35.367188 1.296875 28.140625 1.296875 C 21.296875 1.296875 15.625 -0.679688 11.125 -4.640625 C 6.632812 -8.597656 4.390625 -13.59375 4.390625 -19.625 C 4.390625 -27.019531 7.128906 -32.695312 12.609375 -36.65625 C 18.097656 -40.613281 26.03125 -42.613281 36.40625 -42.65625 L 44.984375 -42.65625 L 44.984375 -46.671875 C 44.984375 -49.890625 44.15625 -52.46875 42.5 -54.40625 C 40.84375 -56.34375 38.226562 -57.3125 34.65625 -57.3125 C 31.519531 -57.3125 29.054688 -56.554688 27.265625 -55.046875 C 25.484375 -53.546875 24.59375 -51.484375 24.59375 -48.859375 L 5.9375 -48.859375 C 5.9375 -52.898438 7.179688 -56.640625 9.671875 -60.078125 C 12.171875 -63.523438 15.703125 -66.226562 20.265625 -68.1875 C 24.828125 -70.144531 29.945312 -71.125 35.625 -71.125 C 44.226562 -71.125 51.054688 -68.960938 56.109375 -64.640625 C 61.171875 -60.316406 63.703125 -54.238281 63.703125 -46.40625 L 63.703125 -16.140625 C 63.742188 -9.515625 64.671875 -4.5 66.484375 -1.09375 L 66.484375 0 Z M 32.203125 -12.96875 C 34.960938 -12.96875 37.503906 -13.582031 39.828125 -14.8125 C 42.148438 -16.039062 43.867188 -17.6875 44.984375 -19.75 L 44.984375 -31.75 L 38.015625 -31.75 C 28.679688 -31.75 23.710938 -28.523438 23.109375 -22.078125 L 23.046875 -20.984375 C 23.046875 -18.648438 23.863281 -16.726562 25.5 -15.21875 C 27.132812 -13.71875 29.367188 -12.96875 32.203125 -12.96875 Z M 32.203125 -12.96875 "/></g></g><g transform="translate(192.050847, 123.016689)"><g><path d="M 24.328125 -69.84375 L 24.921875 -61.765625 C 29.910156 -68.003906 36.597656 -71.125 44.984375 -71.125 C 52.390625 -71.125 57.898438 -68.953125 61.515625 -64.609375 C 65.128906 -60.265625 66.976562 -53.765625 67.0625 -45.109375 L 67.0625 0 L 48.40625 0 L 48.40625 -44.671875 C 48.40625 -48.628906 47.546875 -51.5 45.828125 -53.28125 C 44.109375 -55.0625 41.25 -55.953125 37.25 -55.953125 C 32 -55.953125 28.0625 -53.71875 25.4375 -49.25 L 25.4375 0 L 6.78125 0 L 6.78125 -69.84375 Z M 24.328125 -69.84375 "/></g></g><g transform="translate(266.086239, 123.016689)"><g><path d="M 26.84375 0 L 8.125 0 L 8.125 -69.84375 L 26.84375 -69.84375 Z M 7.03125 -87.90625 C 7.03125 -90.707031 7.96875 -93.007812 9.84375 -94.8125 C 11.71875 -96.625 14.265625 -97.53125 17.484375 -97.53125 C 20.671875 -97.53125 23.210938 -96.625 25.109375 -94.8125 C 27.003906 -93.007812 27.953125 -90.707031 27.953125 -87.90625 C 27.953125 -85.070312 26.992188 -82.75 25.078125 -80.9375 C 23.160156 -79.132812 20.628906 -78.234375 17.484375 -78.234375 C 14.347656 -78.234375 11.820312 -79.132812 9.90625 -80.9375 C 7.988281 -82.75 7.03125 -85.070312 7.03125 -87.90625 Z M 7.03125 -87.90625 "/></g></g><g transform="translate(301.135252, 123.016689)"><g><path d="M 12.265625 0 L 12.265625 -56.15625 L 1.875 -56.15625 L 1.875 -69.84375 L 12.265625 -69.84375 L 12.265625 -75.78125 C 12.265625 -83.601562 14.507812 -89.675781 19 -94 C 23.5 -98.332031 29.796875 -100.5 37.890625 -100.5 C 40.472656 -100.5 43.632812 -100.066406 47.375 -99.203125 L 47.1875 -84.75 C 45.632812 -85.132812 43.738281 -85.328125 41.5 -85.328125 C 34.488281 -85.328125 30.984375 -82.035156 30.984375 -75.453125 L 30.984375 -69.84375 L 44.859375 -69.84375 L 44.859375 -56.15625 L 30.984375 -56.15625 L 30.984375 0 Z M 12.265625 0 "/></g></g></g><g fill="#064e3b" fill-opacity="1"><g transform="translate(348.512717, 123.016689)"><g><path d="M 26.84375 0 L 8.125 0 L 8.125 -69.84375 L 26.84375 -69.84375 Z M 7.03125 -87.90625 C 7.03125 -90.707031 7.96875 -93.007812 9.84375 -94.8125 C 11.71875 -96.625 14.265625 -97.53125 17.484375 -97.53125 C 20.671875 -97.53125 23.210938 -96.625 25.109375 -94.8125 C 27.003906 -93.007812 27.953125 -90.707031 27.953125 -87.90625 C 27.953125 -85.070312 26.992188 -82.75 25.078125 -80.9375 C 23.160156 -79.132812 20.628906 -78.234375 17.484375 -78.234375 C 14.347656 -78.234375 11.820312 -79.132812 9.90625 -80.9375 C 7.988281 -82.75 7.03125 -85.070312 7.03125 -87.90625 Z M 7.03125 -87.90625 "/></g></g></g><g fill="#064e3b" fill-opacity="1"><g transform="translate(383.561755, 123.016689)"><g><path d="M 36.203125 -13.75 C 39.648438 -13.75 42.445312 -14.691406 44.59375 -16.578125 C 46.75 -18.472656 47.867188 -20.992188 47.953125 -24.140625 L 65.453125 -24.140625 C 65.410156 -19.410156 64.117188 -15.078125 61.578125 -11.140625 C 59.035156 -7.203125 55.554688 -4.144531 51.140625 -1.96875 C 46.734375 0.207031 41.863281 1.296875 36.53125 1.296875 C 26.550781 1.296875 18.675781 -1.875 12.90625 -8.21875 C 7.144531 -14.570312 4.265625 -23.34375 4.265625 -34.53125 L 4.265625 -35.75 C 4.265625 -46.507812 7.125 -55.09375 12.84375 -61.5 C 18.5625 -67.914062 26.414062 -71.125 36.40625 -71.125 C 45.132812 -71.125 52.132812 -68.640625 57.40625 -63.671875 C 62.675781 -58.703125 65.359375 -52.085938 65.453125 -43.828125 L 47.953125 -43.828125 C 47.867188 -47.441406 46.75 -50.378906 44.59375 -52.640625 C 42.445312 -54.898438 39.609375 -56.03125 36.078125 -56.03125 C 31.734375 -56.03125 28.453125 -54.445312 26.234375 -51.28125 C 24.015625 -48.113281 22.90625 -42.984375 22.90625 -35.890625 L 22.90625 -33.953125 C 22.90625 -26.765625 24.003906 -21.597656 26.203125 -18.453125 C 28.398438 -15.316406 31.734375 -13.75 36.203125 -13.75 Z M 36.203125 -13.75 "/></g></g></g></g></g></g><g clip-path="url(#dfc2a433ad)"><path fill="#fdf9ed" d="M 146.546875 72.597656 C 146.546875 73.75 146.519531 74.898438 146.460938 76.050781 C 146.40625 77.199219 146.320312 78.347656 146.207031 79.492188 C 146.09375 80.640625 145.953125 81.78125 145.785156 82.921875 C 145.617188 84.058594 145.417969 85.191406 145.195312 86.320312 C 144.96875 87.453125 144.71875 88.574219 144.4375 89.691406 C 144.160156 90.808594 143.851562 91.917969 143.515625 93.019531 C 143.183594 94.121094 142.824219 95.214844 142.433594 96.296875 C 142.046875 97.382812 141.632812 98.457031 141.191406 99.519531 C 140.75 100.582031 140.285156 101.636719 139.792969 102.675781 C 139.300781 103.714844 138.78125 104.746094 138.238281 105.761719 C 137.699219 106.773438 137.128906 107.777344 136.539062 108.765625 C 135.945312 109.75 135.332031 110.722656 134.691406 111.679688 C 134.050781 112.636719 133.386719 113.578125 132.703125 114.503906 C 132.015625 115.429688 131.308594 116.335938 130.578125 117.226562 C 129.847656 118.117188 129.097656 118.988281 128.324219 119.839844 C 127.550781 120.695312 126.757812 121.527344 125.941406 122.339844 C 125.128906 123.15625 124.292969 123.949219 123.441406 124.722656 C 122.589844 125.496094 121.71875 126.246094 120.828125 126.976562 C 119.9375 127.707031 119.03125 128.417969 118.105469 129.101562 C 117.179688 129.789062 116.238281 130.449219 115.28125 131.089844 C 114.324219 131.730469 113.351562 132.34375 112.363281 132.9375 C 111.378906 133.53125 110.375 134.097656 109.359375 134.640625 C 108.34375 135.183594 107.316406 135.699219 106.277344 136.191406 C 105.234375 136.683594 104.183594 137.152344 103.121094 137.589844 C 102.054688 138.03125 100.980469 138.445312 99.898438 138.832031 C 98.8125 139.222656 97.722656 139.582031 96.621094 139.917969 C 95.519531 140.25 94.410156 140.558594 93.292969 140.835938 C 92.175781 141.117188 91.050781 141.371094 89.921875 141.59375 C 88.792969 141.820312 87.660156 142.015625 86.519531 142.183594 C 85.382812 142.355469 84.238281 142.496094 83.09375 142.605469 C 81.949219 142.71875 80.800781 142.804688 79.652344 142.863281 C 78.5 142.917969 77.351562 142.945312 76.199219 142.945312 C 75.046875 142.945312 73.898438 142.917969 72.746094 142.859375 C 71.597656 142.804688 70.449219 142.71875 69.304688 142.605469 C 68.15625 142.496094 67.015625 142.355469 65.875 142.183594 C 64.738281 142.015625 63.605469 141.820312 62.472656 141.59375 C 61.34375 141.371094 60.222656 141.117188 59.105469 140.835938 C 57.988281 140.558594 56.878906 140.25 55.777344 139.917969 C 54.675781 139.582031 53.582031 139.222656 52.5 138.832031 C 51.414062 138.445312 50.339844 138.03125 49.277344 137.589844 C 48.214844 137.152344 47.160156 136.683594 46.121094 136.191406 C 45.082031 135.699219 44.050781 135.183594 43.035156 134.640625 C 42.023438 134.097656 41.019531 133.53125 40.03125 132.9375 C 39.046875 132.34375 38.074219 131.730469 37.117188 131.089844 C 36.15625 130.449219 35.21875 129.789062 34.292969 129.101562 C 33.367188 128.417969 32.460938 127.707031 31.570312 126.976562 C 30.679688 126.246094 29.808594 125.496094 28.957031 124.722656 C 28.101562 123.949219 27.269531 123.15625 26.457031 122.339844 C 25.640625 121.527344 24.847656 120.695312 24.074219 119.839844 C 23.300781 118.988281 22.550781 118.117188 21.820312 117.226562 C 21.089844 116.335938 20.378906 115.429688 19.695312 114.503906 C 19.007812 113.578125 18.347656 112.636719 17.707031 111.679688 C 17.066406 110.722656 16.449219 109.75 15.859375 108.765625 C 15.265625 107.777344 14.699219 106.773438 14.15625 105.761719 C 13.613281 104.746094 13.097656 103.714844 12.605469 102.675781 C 12.113281 101.636719 11.644531 100.582031 11.207031 99.519531 C 10.765625 98.457031 10.351562 97.382812 9.964844 96.296875 C 9.574219 95.214844 9.214844 94.121094 8.878906 93.019531 C 8.546875 91.917969 8.238281 90.808594 7.957031 89.691406 C 7.679688 88.574219 7.425781 87.453125 7.203125 86.320312 C 6.976562 85.191406 6.78125 84.058594 6.613281 82.921875 C 6.441406 81.78125 6.300781 80.640625 6.1875 79.492188 C 6.078125 78.347656 5.992188 77.199219 5.933594 76.050781 C 5.878906 74.898438 5.851562 73.75 5.851562 72.597656 C 5.851562 71.445312 5.878906 70.296875 5.933594 69.144531 C 5.992188 67.996094 6.078125 66.847656 6.1875 65.703125 C 6.300781 64.558594 6.441406 63.414062 6.613281 62.277344 C 6.78125 61.136719 6.976562 60.003906 7.203125 58.875 C 7.425781 57.746094 7.679688 56.621094 7.957031 55.503906 C 8.238281 54.386719 8.546875 53.277344 8.878906 52.175781 C 9.214844 51.074219 9.574219 49.984375 9.964844 48.898438 C 10.351562 47.816406 10.765625 46.742188 11.207031 45.675781 C 11.644531 44.613281 12.113281 43.5625 12.605469 42.519531 C 13.097656 41.480469 13.613281 40.453125 14.15625 39.4375 C 14.699219 38.421875 15.265625 37.417969 15.859375 36.433594 C 16.449219 35.445312 17.066406 34.472656 17.707031 33.515625 C 18.347656 32.558594 19.007812 31.617188 19.695312 30.691406 C 20.378906 29.765625 21.089844 28.859375 21.820312 27.96875 C 22.550781 27.078125 23.300781 26.207031 24.074219 25.355469 C 24.847656 24.503906 25.640625 23.667969 26.457031 22.855469 C 27.269531 22.039062 28.101562 21.246094 28.957031 20.472656 C 29.808594 19.699219 30.679688 18.949219 31.570312 18.21875 C 32.460938 17.488281 33.367188 16.78125 34.292969 16.09375 C 35.21875 15.40625 36.15625 14.746094 37.117188 14.105469 C 38.074219 13.464844 39.046875 12.851562 40.03125 12.257812 C 41.019531 11.667969 42.023438 11.097656 43.035156 10.554688 C 44.050781 10.015625 45.082031 9.496094 46.121094 9.003906 C 47.160156 8.511719 48.214844 8.046875 49.277344 7.605469 C 50.339844 7.164062 51.414062 6.75 52.5 6.363281 C 53.582031 5.972656 54.675781 5.613281 55.777344 5.277344 C 56.878906 4.945312 57.988281 4.636719 59.105469 4.359375 C 60.222656 4.078125 61.34375 3.828125 62.472656 3.601562 C 63.605469 3.378906 64.738281 3.179688 65.875 3.011719 C 67.015625 2.84375 68.15625 2.703125 69.304688 2.589844 C 70.449219 2.476562 71.597656 2.390625 72.746094 2.335938 C 73.898438 2.277344 75.046875 2.25 76.199219 2.25 C 77.351562 2.25 78.5 2.277344 79.652344 2.335938 C 80.800781 2.390625 81.949219 2.476562 83.09375 2.589844 C 84.238281 2.703125 85.382812 2.84375 86.519531 3.011719 C 87.660156 3.179688 88.792969 3.378906 89.921875 3.601562 C 91.050781 3.828125 92.175781 4.078125 93.292969 4.359375 C 94.410156 4.636719 95.519531 4.945312 96.621094 5.277344 C 97.722656 5.613281 98.8125 5.972656 99.898438 6.363281 C 100.980469 6.75 102.054688 7.164062 103.121094 7.605469 C 104.183594 8.046875 105.234375 8.511719 106.277344 9.003906 C 107.316406 9.496094 108.34375 10.015625 109.359375 10.554688 C 110.375 11.097656 111.378906 11.667969 112.363281 12.257812 C 113.351562 12.851562 114.324219 13.464844 115.28125 14.105469 C 116.238281 14.746094 117.179688 15.40625 118.105469 16.09375 C 119.03125 16.78125 119.9375 17.488281 120.828125 18.21875 C 121.71875 18.949219 122.589844 19.699219 123.441406 20.472656 C 124.292969 21.246094 125.128906 22.039062 125.941406 22.855469 C 126.757812 23.667969 127.550781 24.503906 128.324219 25.355469 C 129.097656 26.207031 129.847656 27.078125 130.578125 27.96875 C 131.308594 28.859375 132.015625 29.765625 132.703125 30.691406 C 133.386719 31.617188 134.050781 32.558594 134.691406 33.515625 C 135.332031 34.472656 135.945312 35.445312 136.539062 36.433594 C 137.128906 37.417969 137.699219 38.421875 138.238281 39.4375 C 138.78125 40.453125 139.300781 41.480469 139.792969 42.519531 C 140.285156 43.5625 140.75 44.613281 141.191406 45.675781 C 141.632812 46.742188 142.046875 47.816406 142.433594 48.898438 C 142.824219 49.984375 143.183594 51.074219 143.519531 52.175781 C 143.851562 53.277344 144.160156 54.386719 144.4375 55.503906 C 144.71875 56.621094 144.96875 57.746094 145.195312 58.875 C 145.417969 60.003906 145.617188 61.136719 145.785156 62.277344 C 145.953125 63.414062 146.09375 64.558594 146.207031 65.703125 C 146.320312 66.847656 146.40625 67.996094 146.460938 69.144531 C 146.519531 70.296875 146.546875 71.445312 146.546875 72.597656 Z M 146.546875 72.597656 " fill-opacity="1" fill-rule="nonzero"/></g><path fill="#064e3b" d="M 142.886719 72.597656 C 142.886719 73.691406 142.863281 74.78125 142.808594 75.871094 C 142.753906 76.960938 142.675781 78.046875 142.566406 79.136719 C 142.460938 80.222656 142.328125 81.304688 142.167969 82.382812 C 142.007812 83.464844 141.820312 84.539062 141.605469 85.609375 C 141.394531 86.679688 141.15625 87.742188 140.890625 88.800781 C 140.625 89.859375 140.332031 90.914062 140.015625 91.957031 C 139.699219 93 139.359375 94.039062 138.988281 95.066406 C 138.621094 96.09375 138.230469 97.109375 137.8125 98.121094 C 137.394531 99.128906 136.953125 100.125 136.484375 101.113281 C 136.019531 102.097656 135.527344 103.074219 135.015625 104.035156 C 134.5 104.996094 133.960938 105.949219 133.402344 106.882812 C 132.839844 107.820312 132.253906 108.742188 131.648438 109.648438 C 131.042969 110.554688 130.414062 111.449219 129.765625 112.324219 C 129.113281 113.203125 128.441406 114.0625 127.75 114.90625 C 127.058594 115.75 126.34375 116.574219 125.613281 117.382812 C 124.878906 118.191406 124.128906 118.984375 123.355469 119.753906 C 122.582031 120.527344 121.792969 121.277344 120.984375 122.011719 C 120.175781 122.746094 119.351562 123.457031 118.507812 124.148438 C 117.664062 124.84375 116.800781 125.515625 115.925781 126.164062 C 115.050781 126.8125 114.15625 127.441406 113.25 128.046875 C 112.34375 128.65625 111.421875 129.238281 110.484375 129.800781 C 109.546875 130.359375 108.597656 130.898438 107.636719 131.414062 C 106.671875 131.929688 105.699219 132.417969 104.710938 132.886719 C 103.726562 133.351562 102.726562 133.792969 101.71875 134.210938 C 100.710938 134.628906 99.695312 135.023438 98.664062 135.390625 C 97.636719 135.757812 96.601562 136.097656 95.558594 136.417969 C 94.511719 136.734375 93.460938 137.023438 92.402344 137.289062 C 91.34375 137.554688 90.28125 137.792969 89.210938 138.007812 C 88.140625 138.21875 87.0625 138.40625 85.984375 138.566406 C 84.90625 138.726562 83.820312 138.859375 82.734375 138.96875 C 81.648438 139.074219 80.5625 139.152344 79.472656 139.207031 C 78.382812 139.261719 77.289062 139.289062 76.199219 139.289062 C 75.105469 139.289062 74.015625 139.261719 72.925781 139.207031 C 71.835938 139.152344 70.75 139.074219 69.660156 138.96875 C 68.574219 138.859375 67.492188 138.726562 66.414062 138.566406 C 65.332031 138.40625 64.257812 138.21875 63.1875 138.007812 C 62.117188 137.792969 61.054688 137.554688 59.996094 137.289062 C 58.9375 137.023438 57.882812 136.734375 56.839844 136.417969 C 55.796875 136.097656 54.757812 135.757812 53.730469 135.390625 C 52.703125 135.023438 51.6875 134.628906 50.675781 134.210938 C 49.667969 133.792969 48.671875 133.351562 47.683594 132.886719 C 46.699219 132.417969 45.722656 131.929688 44.761719 131.414062 C 43.796875 130.898438 42.847656 130.359375 41.914062 129.800781 C 40.976562 129.238281 40.054688 128.65625 39.148438 128.046875 C 38.242188 127.441406 37.347656 126.8125 36.472656 126.164062 C 35.59375 125.515625 34.734375 124.84375 33.890625 124.148438 C 33.046875 123.457031 32.222656 122.746094 31.414062 122.011719 C 30.605469 121.277344 29.8125 120.527344 29.042969 119.753906 C 28.269531 118.984375 27.519531 118.191406 26.785156 117.382812 C 26.050781 116.574219 25.339844 115.75 24.648438 114.90625 C 23.953125 114.0625 23.28125 113.203125 22.632812 112.324219 C 21.984375 111.449219 21.355469 110.554688 20.75 109.648438 C 20.140625 108.742188 19.558594 107.820312 18.996094 106.882812 C 18.4375 105.949219 17.898438 104.996094 17.382812 104.035156 C 16.867188 103.074219 16.378906 102.097656 15.910156 101.113281 C 15.445312 100.125 15.003906 99.128906 14.585938 98.121094 C 14.167969 97.109375 13.773438 96.09375 13.40625 95.066406 C 13.039062 94.039062 12.695312 93 12.378906 91.957031 C 12.0625 90.914062 11.773438 89.859375 11.507812 88.800781 C 11.242188 87.742188 11.003906 86.679688 10.789062 85.609375 C 10.578125 84.539062 10.390625 83.464844 10.230469 82.382812 C 10.070312 81.304688 9.9375 80.222656 9.828125 79.136719 C 9.722656 78.046875 9.644531 76.960938 9.589844 75.871094 C 9.535156 74.78125 9.507812 73.691406 9.507812 72.597656 C 9.507812 71.507812 9.535156 70.414062 9.589844 69.324219 C 9.644531 68.234375 9.722656 67.148438 9.828125 66.0625 C 9.9375 64.976562 10.070312 63.890625 10.230469 62.8125 C 10.390625 61.734375 10.578125 60.65625 10.789062 59.585938 C 11.003906 58.515625 11.242188 57.453125 11.507812 56.394531 C 11.773438 55.335938 12.0625 54.285156 12.378906 53.238281 C 12.695312 52.195312 13.039062 51.160156 13.40625 50.132812 C 13.773438 49.101562 14.167969 48.085938 14.585938 47.078125 C 15.003906 46.070312 15.445312 45.070312 15.910156 44.085938 C 16.378906 43.097656 16.867188 42.125 17.382812 41.160156 C 17.898438 40.199219 18.4375 39.25 18.996094 38.3125 C 19.558594 37.375 20.140625 36.453125 20.75 35.546875 C 21.355469 34.640625 21.984375 33.746094 22.632812 32.871094 C 23.28125 31.996094 23.953125 31.132812 24.648438 30.289062 C 25.339844 29.445312 26.050781 28.621094 26.785156 27.8125 C 27.519531 27.003906 28.269531 26.210938 29.042969 25.441406 C 29.8125 24.667969 30.605469 23.917969 31.414062 23.183594 C 32.222656 22.449219 33.046875 21.738281 33.890625 21.046875 C 34.734375 20.355469 35.59375 19.683594 36.472656 19.03125 C 37.347656 18.382812 38.242188 17.753906 39.148438 17.148438 C 40.054688 16.539062 40.976562 15.957031 41.914062 15.394531 C 42.847656 14.835938 43.796875 14.296875 44.761719 13.78125 C 45.722656 13.269531 46.699219 12.777344 47.683594 12.3125 C 48.671875 11.84375 49.667969 11.402344 50.675781 10.984375 C 51.6875 10.566406 52.703125 10.175781 53.730469 9.804688 C 54.757812 9.4375 55.796875 9.097656 56.839844 8.78125 C 57.882812 8.464844 58.9375 8.171875 59.996094 7.90625 C 61.054688 7.640625 62.117188 7.402344 63.1875 7.191406 C 64.257812 6.976562 65.332031 6.789062 66.414062 6.628906 C 67.492188 6.46875 68.574219 6.335938 69.660156 6.230469 C 70.75 6.121094 71.835938 6.042969 72.925781 5.988281 C 74.015625 5.933594 75.105469 5.90625 76.199219 5.90625 C 77.289062 5.90625 78.382812 5.933594 79.472656 5.988281 C 80.5625 6.042969 81.648438 6.121094 82.734375 6.230469 C 83.820312 6.335938 84.90625 6.46875 85.984375 6.628906 C 87.0625 6.789062 88.140625 6.976562 89.210938 7.191406 C 90.28125 7.402344 91.34375 7.640625 92.402344 7.90625 C 93.460938 8.171875 94.511719 8.464844 95.558594 8.78125 C 96.601562 9.097656 97.636719 9.4375 98.664062 9.804688 C 99.695312 10.175781 100.710938 10.566406 101.71875 10.984375 C 102.726562 11.402344 103.726562 11.84375 104.710938 12.3125 C 105.699219 12.777344 106.671875 13.269531 107.636719 13.78125 C 108.597656 14.296875 109.546875 14.835938 110.484375 15.394531 C 111.421875 15.957031 112.34375 16.539062 113.25 17.148438 C 114.15625 17.753906 115.050781 18.382812 115.925781 19.03125 C 116.800781 19.683594 117.664062 20.355469 118.507812 21.046875 C 119.351562 21.738281 120.175781 22.449219 120.984375 23.183594 C 121.792969 23.917969 122.582031 24.667969 123.355469 25.441406 C 124.128906 26.210938 124.878906 27.003906 125.613281 27.8125 C 126.34375 28.621094 127.058594 29.445312 127.75 30.289062 C 128.441406 31.132812 129.113281 31.996094 129.765625 32.871094 C 130.414062 33.746094 131.042969 34.640625 131.648438 35.546875 C 132.253906 36.453125 132.839844 37.375 133.402344 38.3125 C 133.960938 39.25 134.5 40.199219 135.015625 41.160156 C 135.527344 42.125 136.019531 43.097656 136.484375 44.085938 C 136.953125 45.070312 137.394531 46.070312 137.8125 47.078125 C 138.230469 48.085938 138.621094 49.101562 138.988281 50.132812 C 139.359375 51.160156 139.699219 52.195312 140.015625 53.238281 C 140.332031 54.285156 140.625 55.335938 140.890625 56.394531 C 141.15625 57.453125 141.394531 58.515625 141.605469 59.585938 C 141.820312 60.65625 142.007812 61.734375 142.167969 62.8125 C 142.328125 63.890625 142.460938 64.976562 142.566406 66.0625 C 142.675781 67.148438 142.753906 68.234375 142.808594 69.324219 C 142.863281 70.414062 142.886719 71.507812 142.886719 72.597656 Z M 142.886719 72.597656 " fill-opacity="1" fill-rule="nonzero"/><path fill="#fdf9ed" d="M 76.199219 9.285156 C 78.007812 9.285156 79.8125 9.363281 81.617188 9.519531 C 83.417969 9.675781 85.210938 9.910156 86.992188 10.21875 C 88.773438 10.527344 90.539062 10.914062 92.289062 11.375 C 94.039062 11.835938 95.765625 12.371094 97.46875 12.976562 C 99.171875 13.585938 100.847656 14.269531 102.492188 15.019531 C 104.136719 15.773438 105.746094 16.59375 107.324219 17.484375 C 108.898438 18.375 110.429688 19.328125 111.925781 20.351562 C 113.417969 21.375 114.863281 22.457031 116.261719 23.601562 C 117.664062 24.75 119.011719 25.953125 120.308594 27.210938 C 121.605469 28.472656 122.847656 29.789062 124.03125 31.15625 C 125.214844 32.523438 126.339844 33.9375 127.402344 35.402344 C 128.464844 36.867188 129.464844 38.371094 130.398438 39.921875 C 131.332031 41.472656 132.195312 43.058594 132.996094 44.679688 C 133.792969 46.304688 134.519531 47.960938 135.175781 49.644531 C 135.832031 51.332031 136.414062 53.042969 136.925781 54.777344 C 137.433594 56.515625 137.867188 58.269531 138.226562 60.042969 C 138.585938 61.8125 138.867188 63.597656 139.074219 65.398438 C 139.28125 67.195312 139.410156 68.996094 139.460938 70.804688 C 139.511719 72.613281 139.488281 74.421875 139.382812 76.226562 C 139.28125 78.03125 139.101562 79.832031 138.84375 81.621094 C 138.585938 83.414062 138.253906 85.1875 137.84375 86.949219 C 137.433594 88.710938 136.949219 90.453125 136.390625 92.175781 C 135.832031 93.894531 135.203125 95.589844 134.496094 97.253906 C 133.792969 98.921875 133.019531 100.554688 132.175781 102.15625 C 131.332031 103.753906 130.421875 105.316406 129.445312 106.839844 C 128.464844 108.359375 127.425781 109.839844 126.320312 111.269531 C 125.21875 112.703125 124.054688 114.085938 122.832031 115.421875 C 121.609375 116.753906 120.332031 118.03125 119 119.253906 C 117.667969 120.480469 116.285156 121.644531 114.851562 122.75 C 113.421875 123.855469 111.945312 124.898438 110.421875 125.875 C 108.902344 126.855469 107.339844 127.765625 105.742188 128.609375 C 104.140625 129.457031 102.507812 130.230469 100.84375 130.9375 C 98.933594 131.742188 96.988281 132.453125 95.007812 133.066406 C 93.027344 133.679688 91.023438 134.195312 88.992188 134.613281 C 86.960938 135.03125 84.914062 135.347656 82.851562 135.5625 C 80.789062 135.78125 78.722656 135.894531 76.648438 135.90625 C 74.578125 135.921875 72.507812 135.832031 70.445312 135.644531 C 68.378906 135.453125 66.328125 135.164062 64.292969 134.769531 C 62.257812 134.378906 60.246094 133.890625 58.257812 133.300781 C 56.269531 132.710938 54.316406 132.027344 52.394531 131.246094 C 50.476562 130.464844 48.597656 129.59375 46.761719 128.628906 C 44.925781 127.664062 43.144531 126.609375 41.414062 125.46875 C 39.683594 124.332031 38.011719 123.109375 36.398438 121.804688 C 34.789062 120.5 33.242188 119.121094 31.769531 117.664062 C 30.292969 116.207031 28.890625 114.683594 27.566406 113.089844 C 26.238281 111.496094 24.996094 109.839844 23.832031 108.125 C 22.667969 106.410156 21.589844 104.640625 20.601562 102.820312 C 19.609375 101 18.710938 99.132812 17.90625 97.222656 C 17.097656 95.3125 16.386719 93.367188 15.773438 91.390625 C 15.15625 89.410156 14.636719 87.40625 14.21875 85.375 C 13.800781 83.34375 13.484375 81.296875 13.265625 79.234375 C 13.046875 77.175781 12.929688 75.105469 12.914062 73.035156 C 12.902344 70.960938 12.988281 68.890625 13.175781 66.828125 C 13.363281 64.761719 13.652344 62.710938 14.042969 60.675781 C 14.433594 58.640625 14.921875 56.628906 15.507812 54.640625 C 16.09375 52.652344 16.777344 50.695312 17.558594 48.777344 C 18.335938 46.855469 19.207031 44.976562 20.171875 43.140625 C 21.136719 41.304688 22.1875 39.523438 23.324219 37.789062 C 24.464844 36.058594 25.683594 34.382812 26.988281 32.773438 C 28.292969 31.160156 29.671875 29.613281 31.125 28.136719 C 32.578125 26.660156 34.101562 25.257812 35.695312 23.933594 C 37.289062 22.605469 38.941406 21.359375 40.65625 20.191406 C 42.371094 19.027344 44.140625 17.949219 45.960938 16.957031 C 47.78125 15.96875 49.644531 15.066406 51.554688 14.257812 C 59.429688 10.925781 67.644531 9.269531 76.199219 9.285156 M 76.199219 7.597656 C 40.300781 7.597656 11.195312 36.699219 11.195312 72.597656 C 11.195312 108.496094 40.300781 137.601562 76.199219 137.601562 C 112.097656 137.601562 141.199219 108.496094 141.199219 72.597656 C 141.199219 36.699219 112.097656 7.597656 76.199219 7.597656 Z M 76.199219 7.597656 " fill-opacity="1" fill-rule="nonzero"/><path fill="#fdf9ed" d="M 76.199219 33.203125 C 76.949219 33.203125 77.703125 33.226562 78.453125 33.269531 C 79.203125 33.3125 79.953125 33.375 80.699219 33.460938 C 81.449219 33.546875 82.191406 33.65625 82.933594 33.78125 C 83.675781 33.910156 84.410156 34.0625 85.144531 34.230469 C 85.878906 34.402344 86.605469 34.59375 87.324219 34.808594 C 88.046875 35.019531 88.761719 35.253906 89.46875 35.507812 C 90.179688 35.757812 90.878906 36.03125 91.570312 36.328125 C 92.265625 36.621094 92.949219 36.933594 93.621094 37.265625 C 94.296875 37.597656 94.960938 37.949219 95.617188 38.320312 C 96.269531 38.691406 96.914062 39.082031 97.546875 39.488281 C 98.179688 39.894531 98.796875 40.320312 99.40625 40.765625 C 100.015625 41.207031 100.609375 41.667969 101.191406 42.144531 C 101.773438 42.621094 102.339844 43.117188 102.894531 43.625 C 103.445312 44.136719 103.984375 44.660156 104.507812 45.199219 C 105.03125 45.742188 105.539062 46.296875 106.027344 46.867188 C 106.519531 47.4375 106.996094 48.019531 107.453125 48.617188 C 107.910156 49.210938 108.351562 49.820312 108.773438 50.445312 C 109.199219 51.066406 109.601562 51.699219 109.988281 52.34375 C 110.375 52.992188 110.742188 53.644531 111.09375 54.3125 C 111.441406 54.980469 111.773438 55.65625 112.082031 56.339844 C 112.394531 57.023438 112.683594 57.71875 112.953125 58.421875 C 113.226562 59.121094 113.476562 59.832031 113.707031 60.546875 C 113.933594 61.261719 114.144531 61.984375 114.332031 62.714844 C 114.523438 63.441406 114.691406 64.175781 114.835938 64.914062 C 114.984375 65.648438 115.109375 66.390625 115.214844 67.136719 C 115.316406 67.882812 115.402344 68.628906 115.460938 69.378906 C 115.523438 70.128906 115.5625 70.878906 115.582031 71.632812 C 115.601562 72.382812 115.597656 73.136719 115.574219 73.886719 C 115.546875 74.640625 115.5 75.390625 115.433594 76.136719 C 115.367188 76.886719 115.277344 77.632812 115.167969 78.378906 C 115.058594 79.121094 114.925781 79.863281 114.773438 80.597656 C 114.621094 81.335938 114.445312 82.066406 114.25 82.792969 C 114.054688 83.519531 113.839844 84.242188 113.605469 84.957031 C 113.371094 85.667969 113.113281 86.375 112.835938 87.078125 C 112.558594 87.777344 112.265625 88.46875 111.949219 89.148438 C 111.632812 89.832031 111.296875 90.503906 110.941406 91.167969 C 110.585938 91.832031 110.214844 92.484375 109.820312 93.125 C 109.429688 93.769531 109.019531 94.398438 108.59375 95.019531 C 108.164062 95.636719 107.71875 96.242188 107.253906 96.835938 C 106.792969 97.429688 106.3125 98.007812 105.816406 98.574219 C 105.320312 99.136719 104.808594 99.6875 104.28125 100.226562 C 103.753906 100.761719 103.210938 101.28125 102.65625 101.789062 C 102.097656 102.292969 101.527344 102.78125 100.941406 103.253906 C 100.355469 103.726562 99.757812 104.183594 99.144531 104.621094 C 98.535156 105.058594 97.910156 105.480469 97.273438 105.882812 C 96.640625 106.285156 95.992188 106.667969 95.335938 107.03125 C 94.679688 107.398438 94.011719 107.746094 93.332031 108.070312 C 92.65625 108.398438 91.96875 108.707031 91.273438 108.996094 C 90.578125 109.28125 89.875 109.550781 89.167969 109.796875 C 88.457031 110.046875 87.738281 110.273438 87.015625 110.480469 C 86.292969 110.683594 85.5625 110.871094 84.832031 111.035156 C 84.097656 111.199219 83.359375 111.34375 82.617188 111.46875 C 81.875 111.589844 81.128906 111.691406 80.378906 111.769531 C 79.632812 111.851562 78.882812 111.910156 78.132812 111.945312 C 77.378906 111.984375 76.628906 111.996094 75.875 111.992188 C 75.125 111.984375 74.371094 111.957031 73.621094 111.910156 C 72.871094 111.859375 72.121094 111.789062 71.375 111.695312 C 70.628906 111.605469 69.886719 111.492188 69.144531 111.355469 C 68.40625 111.222656 67.671875 111.066406 66.941406 110.890625 C 66.207031 110.710938 65.484375 110.515625 64.761719 110.296875 C 64.042969 110.078125 63.332031 109.839844 62.625 109.582031 C 61.917969 109.320312 61.21875 109.042969 60.53125 108.742188 C 59.839844 108.445312 59.160156 108.125 58.488281 107.785156 C 57.8125 107.449219 57.152344 107.089844 56.5 106.714844 C 55.851562 106.339844 55.210938 105.945312 54.582031 105.53125 C 53.953125 105.117188 53.335938 104.6875 52.730469 104.242188 C 52.128906 103.792969 51.535156 103.328125 50.957031 102.84375 C 50.382812 102.363281 49.816406 101.863281 49.269531 101.351562 C 48.71875 100.835938 48.1875 100.308594 47.667969 99.761719 C 47.148438 99.21875 46.644531 98.660156 46.160156 98.085938 C 45.671875 97.511719 45.203125 96.925781 44.75 96.324219 C 44.296875 95.722656 43.859375 95.109375 43.441406 94.484375 C 43.023438 93.859375 42.625 93.222656 42.242188 92.574219 C 41.863281 91.925781 41.5 91.265625 41.15625 90.597656 C 40.8125 89.929688 40.488281 89.25 40.183594 88.5625 C 39.878906 87.875 39.59375 87.179688 39.328125 86.476562 C 39.0625 85.769531 38.820312 85.058594 38.59375 84.34375 C 38.371094 83.625 38.167969 82.898438 37.984375 82.171875 C 37.800781 81.441406 37.640625 80.707031 37.5 79.96875 C 37.359375 79.226562 37.238281 78.484375 37.140625 77.738281 C 37.042969 76.996094 36.964844 76.246094 36.910156 75.496094 C 36.855469 74.746094 36.820312 73.996094 36.808594 73.242188 C 36.796875 72.492188 36.804688 71.738281 36.835938 70.988281 C 36.867188 70.234375 36.917969 69.484375 36.992188 68.738281 C 37.066406 67.988281 37.164062 67.242188 37.277344 66.5 C 37.394531 65.753906 37.53125 65.015625 37.691406 64.28125 C 37.851562 63.546875 38.03125 62.816406 38.230469 62.089844 C 38.429688 61.367188 38.652344 60.648438 38.894531 59.933594 C 39.136719 59.222656 39.398438 58.519531 39.679688 57.820312 C 39.960938 57.125 40.265625 56.433594 40.585938 55.753906 C 40.90625 55.074219 41.25 54.402344 41.609375 53.742188 C 41.96875 53.082031 42.347656 52.433594 42.746094 51.792969 C 43.140625 51.15625 43.558594 50.527344 43.988281 49.914062 C 44.421875 49.300781 44.875 48.695312 45.339844 48.109375 C 45.808594 47.519531 46.292969 46.941406 46.792969 46.382812 C 47.292969 45.820312 47.808594 45.273438 48.34375 44.742188 C 50.167969 42.90625 52.15625 41.269531 54.304688 39.828125 C 56.453125 38.386719 58.722656 37.171875 61.113281 36.183594 C 63.503906 35.191406 65.96875 34.445312 68.507812 33.945312 C 71.046875 33.441406 73.609375 33.195312 76.199219 33.203125 M 76.199219 31.515625 C 74.851562 31.515625 73.511719 31.582031 72.171875 31.710938 C 70.832031 31.84375 69.503906 32.042969 68.183594 32.304688 C 66.863281 32.566406 65.558594 32.894531 64.273438 33.285156 C 62.984375 33.675781 61.71875 34.128906 60.476562 34.640625 C 59.234375 35.15625 58.019531 35.730469 56.832031 36.367188 C 55.644531 37 54.492188 37.691406 53.375 38.4375 C 52.253906 39.1875 51.175781 39.988281 50.136719 40.839844 C 49.09375 41.695312 48.101562 42.597656 47.148438 43.546875 C 46.195312 44.5 45.292969 45.496094 44.441406 46.535156 C 43.585938 47.574219 42.785156 48.65625 42.039062 49.773438 C 41.292969 50.890625 40.601562 52.042969 39.964844 53.230469 C 39.332031 54.417969 38.757812 55.632812 38.242188 56.875 C 37.726562 58.121094 37.273438 59.382812 36.882812 60.671875 C 36.492188 61.960938 36.167969 63.261719 35.90625 64.582031 C 35.640625 65.902344 35.445312 67.230469 35.3125 68.570312 C 35.179688 69.910156 35.117188 71.253906 35.117188 72.597656 C 35.117188 73.945312 35.179688 75.285156 35.3125 76.625 C 35.445312 77.964844 35.640625 79.292969 35.90625 80.613281 C 36.167969 81.933594 36.492188 83.234375 36.882812 84.523438 C 37.273438 85.8125 37.726562 87.078125 38.242188 88.320312 C 38.757812 89.5625 39.332031 90.777344 39.964844 91.964844 C 40.601562 93.152344 41.292969 94.304688 42.039062 95.421875 C 42.785156 96.542969 43.585938 97.621094 44.441406 98.660156 C 45.292969 99.699219 46.195312 100.695312 47.148438 101.648438 C 48.101562 102.601562 49.09375 103.503906 50.136719 104.355469 C 51.175781 105.210938 52.253906 106.011719 53.375 106.757812 C 54.492188 107.503906 55.644531 108.195312 56.832031 108.832031 C 58.019531 109.464844 59.234375 110.039062 60.476562 110.554688 C 61.71875 111.070312 62.984375 111.523438 64.273438 111.914062 C 65.558594 112.304688 66.863281 112.628906 68.183594 112.890625 C 69.503906 113.15625 70.832031 113.351562 72.171875 113.484375 C 73.511719 113.617188 74.851562 113.679688 76.199219 113.679688 C 77.542969 113.679688 78.886719 113.617188 80.226562 113.484375 C 81.566406 113.351562 82.894531 113.15625 84.214844 112.890625 C 85.535156 112.628906 86.835938 112.304688 88.125 111.914062 C 89.414062 111.523438 90.675781 111.070312 91.921875 110.554688 C 93.164062 110.039062 94.378906 109.464844 95.566406 108.832031 C 96.75 108.195312 97.90625 107.503906 99.023438 106.757812 C 100.140625 106.011719 101.222656 105.210938 102.261719 104.355469 C 103.300781 103.503906 104.296875 102.601562 105.25 101.648438 C 106.199219 100.695312 107.101562 99.699219 107.957031 98.660156 C 108.808594 97.621094 109.609375 96.542969 110.359375 95.421875 C 111.105469 94.304688 111.796875 93.152344 112.429688 91.964844 C 113.066406 90.777344 113.640625 89.5625 114.15625 88.320312 C 114.667969 87.078125 115.121094 85.8125 115.511719 84.523438 C 115.902344 83.234375 116.230469 81.933594 116.492188 80.613281 C 116.753906 79.292969 116.953125 77.964844 117.085938 76.625 C 117.214844 75.285156 117.28125 73.945312 117.28125 72.597656 C 117.28125 71.253906 117.214844 69.910156 117.085938 68.570312 C 116.953125 67.230469 116.753906 65.902344 116.492188 64.582031 C 116.230469 63.261719 115.902344 61.960938 115.511719 60.671875 C 115.121094 59.382812 114.667969 58.121094 114.15625 56.875 C 113.640625 55.632812 113.066406 54.417969 112.429688 53.230469 C 111.796875 52.042969 111.105469 50.890625 110.359375 49.773438 C 109.609375 48.65625 108.808594 47.574219 107.957031 46.535156 C 107.101562 45.496094 106.199219 44.5 105.25 43.546875 C 104.296875 42.597656 103.300781 41.695312 102.261719 40.839844 C 101.222656 39.988281 100.140625 39.1875 99.023438 38.4375 C 97.90625 37.691406 96.75 37 95.566406 36.367188 C 94.378906 35.730469 93.164062 35.15625 91.921875 34.640625 C 90.675781 34.128906 89.414062 33.675781 88.125 33.285156 C 86.835938 32.894531 85.535156 32.566406 84.214844 32.304688 C 82.894531 32.042969 81.566406 31.84375 80.226562 31.710938 C 78.886719 31.582031 77.542969 31.515625 76.199219 31.515625 Z M 76.199219 31.515625 " fill-opacity="1" fill-rule="nonzero"/><path fill="#fdf9ed" d="M 113.90625 72.597656 C 113.90625 73.832031 113.84375 75.066406 113.722656 76.292969 C 113.601562 77.523438 113.421875 78.742188 113.179688 79.953125 C 112.941406 81.164062 112.640625 82.363281 112.28125 83.542969 C 111.921875 84.726562 111.507812 85.886719 111.035156 87.027344 C 110.5625 88.167969 110.035156 89.285156 109.453125 90.371094 C 108.871094 91.460938 108.238281 92.519531 107.550781 93.546875 C 106.863281 94.574219 106.128906 95.5625 105.347656 96.519531 C 104.5625 97.472656 103.734375 98.386719 102.859375 99.261719 C 101.988281 100.132812 101.074219 100.960938 100.121094 101.746094 C 99.164062 102.527344 98.175781 103.265625 97.148438 103.949219 C 96.121094 104.636719 95.0625 105.269531 93.972656 105.851562 C 92.882812 106.433594 91.769531 106.960938 90.628906 107.433594 C 89.488281 107.90625 88.324219 108.324219 87.144531 108.679688 C 85.960938 109.039062 84.765625 109.339844 83.554688 109.578125 C 82.34375 109.820312 81.125 110.003906 79.894531 110.121094 C 78.664062 110.242188 77.433594 110.304688 76.199219 110.304688 C 74.964844 110.304688 73.730469 110.242188 72.503906 110.121094 C 71.273438 110.003906 70.054688 109.820312 68.84375 109.578125 C 67.632812 109.339844 66.433594 109.039062 65.253906 108.679688 C 64.070312 108.324219 62.910156 107.90625 61.769531 107.433594 C 60.628906 106.960938 59.511719 106.433594 58.425781 105.851562 C 57.335938 105.269531 56.277344 104.636719 55.25 103.949219 C 54.222656 103.265625 53.234375 102.527344 52.277344 101.746094 C 51.324219 100.960938 50.410156 100.132812 49.535156 99.261719 C 48.664062 98.386719 47.835938 97.472656 47.050781 96.519531 C 46.269531 95.5625 45.53125 94.574219 44.847656 93.546875 C 44.160156 92.519531 43.527344 91.460938 42.945312 90.371094 C 42.363281 89.285156 41.835938 88.167969 41.363281 87.027344 C 40.890625 85.886719 40.472656 84.726562 40.117188 83.542969 C 39.757812 82.363281 39.457031 81.164062 39.214844 79.953125 C 38.976562 78.742188 38.792969 77.523438 38.671875 76.292969 C 38.550781 75.066406 38.492188 73.832031 38.492188 72.597656 C 38.492188 71.363281 38.550781 70.132812 38.671875 68.902344 C 38.792969 67.671875 38.976562 66.453125 39.214844 65.242188 C 39.457031 64.03125 39.757812 62.835938 40.117188 61.652344 C 40.472656 60.46875 40.890625 59.308594 41.363281 58.167969 C 41.835938 57.027344 42.363281 55.914062 42.945312 54.824219 C 43.527344 53.734375 44.160156 52.675781 44.847656 51.648438 C 45.53125 50.621094 46.269531 49.632812 47.050781 48.675781 C 47.835938 47.722656 48.664062 46.808594 49.535156 45.933594 C 50.410156 45.0625 51.324219 44.234375 52.277344 43.449219 C 53.234375 42.667969 54.222656 41.933594 55.25 41.246094 C 56.277344 40.558594 57.335938 39.925781 58.425781 39.34375 C 59.511719 38.761719 60.628906 38.234375 61.769531 37.761719 C 62.910156 37.289062 64.070312 36.875 65.253906 36.515625 C 66.433594 36.15625 67.632812 35.855469 68.84375 35.617188 C 70.054688 35.375 71.273438 35.195312 72.503906 35.074219 C 73.730469 34.953125 74.964844 34.890625 76.199219 34.890625 C 77.433594 34.890625 78.664062 34.953125 79.894531 35.074219 C 81.125 35.195312 82.34375 35.375 83.554688 35.617188 C 84.765625 35.855469 85.960938 36.15625 87.144531 36.515625 C 88.324219 36.875 89.488281 37.289062 90.628906 37.761719 C 91.769531 38.234375 92.882812 38.761719 93.972656 39.34375 C 95.0625 39.925781 96.121094 40.558594 97.148438 41.246094 C 98.175781 41.933594 99.164062 42.667969 100.121094 43.449219 C 101.074219 44.234375 101.988281 45.0625 102.859375 45.933594 C 103.734375 46.808594 104.5625 47.722656 105.347656 48.675781 C 106.128906 49.632812 106.863281 50.621094 107.550781 51.648438 C 108.238281 52.675781 108.871094 53.734375 109.453125 54.824219 C 110.035156 55.914062 110.5625 57.027344 111.035156 58.167969 C 111.507812 59.308594 111.921875 60.46875 112.28125 61.652344 C 112.640625 62.835938 112.941406 64.03125 113.179688 65.242188 C 113.421875 66.453125 113.601562 67.671875 113.722656 68.902344 C 113.84375 70.132812 113.90625 71.363281 113.90625 72.597656 Z M 113.90625 72.597656 " fill-opacity="1" fill-rule="nonzero"/><path fill="#fdf9ed" d="M 138.386719 72.597656 C 138.386719 106.941406 110.542969 134.785156 76.199219 134.785156 C 41.855469 134.785156 14.011719 106.941406 14.011719 72.597656 L 33.988281 72.597656 C 33.988281 96.0625 52.886719 115.089844 76.199219 115.089844 C 99.507812 115.089844 118.40625 96.0625 118.40625 72.597656 Z M 138.386719 72.597656 " fill-opacity="1" fill-rule="nonzero"/><g clip-path="url(#745b80ff11)"><path fill="#064e3b" d="M 103.839844 22.179688 C 100.183594 13.527344 94.945312 5.757812 88.277344 -0.910156 C 81.609375 -7.578125 73.839844 -12.816406 65.1875 -16.472656 C 56.226562 -20.265625 46.710938 -22.1875 36.90625 -22.1875 C 27.105469 -22.1875 17.589844 -20.265625 8.625 -16.472656 C -0.0273438 -12.816406 -7.792969 -7.578125 -14.460938 -0.910156 C -21.132812 5.757812 -26.367188 13.527344 -30.027344 22.179688 C -33.820312 31.140625 -35.742188 40.65625 -35.742188 50.460938 C -35.742188 60.261719 -33.820312 69.777344 -30.027344 78.742188 C -26.367188 87.394531 -21.132812 95.160156 -14.460938 101.828125 C -7.792969 108.496094 -0.0273438 113.734375 8.625 117.394531 C 17.566406 121.175781 27.054688 123.097656 36.832031 123.105469 L 36.832031 100.40625 C 9.324219 100.363281 -13.039062 77.972656 -13.039062 50.460938 C -13.039062 22.917969 9.367188 0.515625 36.90625 0.515625 C 64.445312 0.515625 86.851562 22.917969 86.851562 50.460938 C 86.851562 68.371094 77.375 84.105469 63.175781 92.921875 L 79.570312 109.265625 C 82.644531 107.03125 85.554688 104.550781 88.277344 101.828125 C 94.945312 95.160156 100.183594 87.394531 103.839844 78.742188 C 107.632812 69.777344 109.554688 60.261719 109.554688 50.460938 C 109.554688 40.65625 107.632812 31.140625 103.839844 22.179688 " fill-opacity="1" fill-rule="nonzero"/></g><g clip-path="url(#9a2ed2e5c1)"><path fill="#064e3b" d="M 125.59375 123.105469 L 36.832031 34.554688 L 36.832031 66.664062 L 93.457031 123.105469 L 125.59375 123.105469 " fill-opacity="1" fill-rule="nonzero"/></g><g clip-path="url(#5d9c5156e9)"><path fill="#064e3b" d="M 125.484375 43.734375 C 121.824219 35.082031 116.585938 27.3125 109.917969 20.644531 C 103.25 13.976562 95.484375 8.742188 86.832031 5.082031 C 77.867188 1.289062 68.351562 -0.632812 58.550781 -0.632812 C 48.746094 -0.632812 39.230469 1.289062 30.265625 5.082031 C 21.617188 8.742188 13.847656 13.976562 7.179688 20.644531 C 0.511719 27.3125 -4.726562 35.082031 -8.386719 43.734375 C -12.175781 52.699219 -14.097656 62.214844 -14.097656 72.015625 C -14.097656 81.816406 -12.175781 91.332031 -8.386719 100.296875 C -4.726562 108.949219 0.511719 116.71875 7.179688 123.386719 C 13.847656 130.054688 21.617188 135.289062 30.265625 138.949219 C 39.207031 142.730469 48.699219 144.652344 58.472656 144.664062 L 58.472656 121.960938 C 30.96875 121.917969 8.601562 99.53125 8.601562 72.015625 C 8.601562 44.476562 31.007812 22.070312 58.550781 22.070312 C 86.089844 22.070312 108.496094 44.476562 108.496094 72.015625 C 108.496094 89.925781 99.015625 105.660156 84.816406 114.476562 L 101.214844 130.824219 C 104.289062 128.585938 107.195312 126.109375 109.917969 123.386719 C 116.585938 116.71875 121.824219 108.949219 125.484375 100.296875 C 129.273438 91.332031 131.195312 81.816406 131.195312 72.015625 C 131.195312 62.214844 129.273438 52.699219 125.484375 43.734375 " fill-opacity="1" fill-rule="nonzero"/></g><g clip-path="url(#47fdd812fb)"><path fill="#064e3b" d="M 147.234375 144.664062 L 58.472656 56.109375 L 58.472656 88.21875 L 115.097656 144.664062 L 147.234375 144.664062 " fill-opacity="1" fill-rule="nonzero"/></g><g clip-path="url(#8490c3df0e)"><path fill="#064e3b" d="M 423.289062 40.152344 C 423.28125 40.152344 423.273438 40.152344 423.261719 40.152344 C 423.167969 40.148438 423.074219 40.152344 422.976562 40.15625 C 419.148438 40.316406 415.953125 41.722656 413.386719 44.371094 C 413.386719 44.375 413.382812 44.375 413.382812 44.375 C 410.820312 47.027344 409.523438 50.265625 409.488281 54.097656 C 409.488281 54.101562 409.488281 54.105469 409.488281 54.113281 C 409.488281 54.160156 409.488281 54.207031 409.488281 54.253906 C 409.515625 55.519531 409.699219 56.742188 410.050781 57.921875 C 410.082031 58.035156 410.121094 58.148438 410.160156 58.261719 L 410.53125 59.273438 C 410.574219 59.390625 410.621094 59.507812 410.671875 59.625 C 411.160156 60.722656 411.777344 61.734375 412.519531 62.664062 C 412.523438 62.664062 412.523438 62.664062 412.523438 62.664062 C 412.523438 62.667969 412.527344 62.671875 412.527344 62.671875 C 412.53125 62.675781 412.535156 62.679688 412.535156 62.683594 C 414.84375 65.539062 417.855469 67.230469 421.578125 67.757812 C 421.671875 67.769531 421.761719 67.78125 421.859375 67.789062 C 421.863281 67.789062 421.867188 67.789062 421.867188 67.789062 C 422.296875 67.828125 422.722656 67.851562 423.144531 67.855469 C 426.496094 67.890625 429.449219 66.882812 432.003906 64.832031 L 432.007812 64.832031 C 432.007812 64.832031 432.015625 64.824219 432.019531 64.820312 C 434.875 62.515625 436.566406 59.5 437.09375 55.78125 C 437.117188 55.613281 437.132812 55.445312 437.140625 55.277344 L 437.199219 54.15625 C 437.207031 53.984375 437.207031 53.8125 437.203125 53.640625 C 437.042969 49.816406 435.640625 46.621094 432.992188 44.054688 L 432.992188 44.058594 C 432.992188 44.054688 432.988281 44.050781 432.984375 44.050781 C 430.339844 41.492188 427.109375 40.191406 423.289062 40.152344 Z M 423.289062 40.152344 " fill-opacity="1" fill-rule="nonzero"/></g><path fill="#fdf9ed" d="M 423.265625 42.464844 C 423.257812 42.464844 423.25 42.464844 423.242188 42.464844 C 423.183594 42.464844 423.128906 42.464844 423.074219 42.464844 C 419.859375 42.601562 417.1875 43.773438 415.050781 45.980469 C 412.914062 48.1875 411.828125 50.902344 411.800781 54.117188 C 411.800781 54.148438 411.800781 54.179688 411.800781 54.210938 C 411.824219 55.265625 411.976562 56.285156 412.265625 57.265625 C 412.285156 57.335938 412.308594 57.402344 412.332031 57.46875 L 412.703125 58.476562 C 412.730469 58.546875 412.757812 58.617188 412.785156 58.683594 C 413.195312 59.601562 413.707031 60.445312 414.328125 61.21875 C 414.328125 61.222656 414.332031 61.226562 414.335938 61.230469 C 416.261719 63.613281 418.78125 65.023438 421.902344 65.464844 C 421.953125 65.472656 422.007812 65.480469 422.070312 65.484375 C 422.441406 65.519531 422.808594 65.539062 423.171875 65.542969 C 425.96875 65.570312 428.429688 64.734375 430.558594 63.03125 C 430.5625 63.027344 430.566406 63.023438 430.566406 63.023438 C 432.953125 61.097656 434.363281 58.574219 434.804688 55.457031 C 434.820312 55.359375 434.828125 55.257812 434.832031 55.160156 L 434.890625 54.039062 C 434.894531 53.9375 434.894531 53.835938 434.890625 53.734375 C 434.757812 50.523438 433.585938 47.847656 431.378906 45.710938 C 429.175781 43.578125 426.472656 42.496094 423.265625 42.464844 Z M 423.265625 42.464844 " fill-opacity="1" fill-rule="nonzero"/><path fill="#fdfbf7" d="M 431.589844 53.875 L 431.535156 54.992188 C 431.214844 57.253906 430.199219 59.074219 428.492188 60.453125 C 426.773438 61.832031 424.730469 62.414062 422.363281 62.195312 C 420.105469 61.875 418.285156 60.863281 416.90625 59.15625 C 416.460938 58.601562 416.097656 58 415.804688 57.34375 L 415.433594 56.332031 C 415.230469 55.636719 415.117188 54.90625 415.105469 54.144531 C 415.125 51.808594 415.898438 49.851562 417.421875 48.277344 C 418.949219 46.699219 420.878906 45.863281 423.210938 45.765625 C 425.546875 45.785156 427.503906 46.558594 429.082031 48.085938 C 430.65625 49.609375 431.492188 51.539062 431.589844 53.875 " fill-opacity="1" fill-rule="nonzero"/><path fill="#fdf9ed" d="M 411.554688 52.953125 L 412.046875 53 Z M 411.554688 52.953125 " fill-opacity="1" fill-rule="nonzero"/><g clip-path="url(#7b86844889)"><path fill="#064e3b" d="M 506.457031 40.695312 C 506.449219 40.695312 506.441406 40.695312 506.429688 40.695312 C 506.335938 40.695312 506.238281 40.695312 506.144531 40.699219 L 506.144531 40.703125 C 502.316406 40.859375 499.121094 42.265625 496.554688 44.917969 C 496.554688 44.917969 496.550781 44.921875 496.550781 44.921875 C 493.988281 47.570312 492.691406 50.8125 492.65625 54.640625 C 492.65625 54.648438 492.65625 54.652344 492.65625 54.65625 C 492.65625 54.703125 492.65625 54.753906 492.65625 54.800781 C 492.679688 56.0625 492.867188 57.285156 493.214844 58.46875 C 493.25 58.582031 493.289062 58.695312 493.328125 58.808594 L 493.699219 59.816406 L 493.699219 59.820312 C 493.742188 59.9375 493.789062 60.054688 493.839844 60.167969 C 494.328125 61.265625 494.945312 62.28125 495.6875 63.210938 C 495.6875 63.210938 495.6875 63.210938 495.691406 63.210938 C 495.691406 63.210938 495.695312 63.214844 495.695312 63.21875 C 495.699219 63.222656 495.703125 63.226562 495.703125 63.226562 C 498.011719 66.085938 501.023438 67.773438 504.746094 68.300781 C 504.839844 68.316406 504.929688 68.324219 505.027344 68.335938 C 505.03125 68.335938 505.03125 68.335938 505.035156 68.335938 C 505.464844 68.375 505.890625 68.394531 506.3125 68.398438 C 509.664062 68.433594 512.613281 67.429688 515.171875 65.378906 L 515.175781 65.375 C 515.175781 65.375 515.183594 65.371094 515.1875 65.367188 C 518.042969 63.058594 519.734375 60.046875 520.261719 56.324219 C 520.285156 56.160156 520.300781 55.992188 520.308594 55.824219 L 520.367188 54.703125 C 520.375 54.53125 520.375 54.359375 520.367188 54.183594 C 520.210938 50.359375 518.804688 47.164062 516.160156 44.601562 C 516.15625 44.597656 516.15625 44.597656 516.152344 44.59375 C 513.507812 42.035156 510.277344 40.738281 506.457031 40.695312 Z M 506.457031 40.695312 " fill-opacity="1" fill-rule="nonzero"/></g><path fill="#fdf9ed" d="M 506.433594 43.007812 C 506.425781 43.007812 506.417969 43.007812 506.40625 43.007812 C 506.351562 43.007812 506.296875 43.007812 506.242188 43.011719 C 503.027344 43.144531 500.351562 44.316406 498.214844 46.527344 C 496.078125 48.734375 494.996094 51.445312 494.96875 54.660156 C 494.96875 54.691406 494.96875 54.722656 494.96875 54.753906 C 494.988281 55.8125 495.144531 56.832031 495.433594 57.8125 C 495.453125 57.878906 495.476562 57.945312 495.5 58.011719 L 495.871094 59.023438 C 495.894531 59.09375 495.921875 59.164062 495.953125 59.230469 C 496.359375 60.144531 496.875 60.988281 497.492188 61.765625 C 497.496094 61.765625 497.5 61.769531 497.503906 61.773438 C 499.425781 64.160156 501.949219 65.570312 505.070312 66.011719 C 505.121094 66.019531 505.175781 66.027344 505.238281 66.03125 C 505.609375 66.066406 505.976562 66.082031 506.335938 66.085938 C 509.136719 66.117188 511.597656 65.277344 513.726562 63.574219 C 513.726562 63.570312 513.730469 63.570312 513.734375 63.566406 C 516.117188 61.640625 517.53125 59.121094 517.972656 56 C 517.984375 55.902344 517.996094 55.804688 518 55.707031 L 518.058594 54.585938 C 518.0625 54.484375 518.0625 54.382812 518.058594 54.28125 C 517.925781 51.066406 516.753906 48.394531 514.542969 46.257812 C 512.34375 44.125 509.636719 43.042969 506.433594 43.007812 Z M 506.433594 43.007812 " fill-opacity="1" fill-rule="nonzero"/><path fill="#fdfbf7" d="M 514.757812 54.417969 L 514.703125 55.539062 C 514.382812 57.796875 513.367188 59.617188 511.660156 60.996094 C 509.9375 62.375 507.894531 62.957031 505.53125 62.742188 C 503.269531 62.421875 501.453125 61.40625 500.070312 59.699219 C 499.628906 59.148438 499.261719 58.542969 498.972656 57.890625 L 498.601562 56.878906 C 498.394531 56.179688 498.285156 55.453125 498.269531 54.691406 C 498.292969 52.355469 499.0625 50.398438 500.589844 48.820312 C 502.113281 47.246094 504.042969 46.410156 506.378906 46.3125 C 508.714844 46.332031 510.671875 47.105469 512.25 48.628906 C 513.824219 50.15625 514.660156 52.085938 514.757812 54.417969 " fill-opacity="1" fill-rule="nonzero"/><path fill="#fdf9ed" d="M 494.71875 53.496094 L 495.214844 53.542969 Z M 494.71875 53.496094 " fill-opacity="1" fill-rule="nonzero"/></g></g><g clip-path="url(#7f58276445)"><path fill="#064e3b" d="M 75.910156 76.546875 L 75.941406 76.535156 C 75.941406 76.535156 76.515625 76.769531 76.6875 76.148438 C 87.035156 67.945312 105.074219 65.527344 110.375 64.980469 C 110.375 64.980469 104.191406 75.804688 104.191406 75.804688 C 103.972656 76.183594 104.105469 76.667969 104.484375 76.886719 C 104.867188 77.105469 105.351562 76.972656 105.570312 76.589844 L 112.511719 64.445312 C 112.65625 64.1875 112.652344 63.875 112.492188 63.625 C 112.335938 63.378906 112.058594 63.234375 111.765625 63.257812 C 111.765625 63.257812 88.535156 64.945312 75.9375 74.71875 C 63.339844 64.9375 40.121094 63.257812 40.121094 63.257812 C 39.828125 63.234375 39.546875 63.378906 39.390625 63.625 C 39.234375 63.875 39.226562 64.1875 39.371094 64.445312 L 46.3125 76.589844 C 46.53125 76.972656 47.019531 77.105469 47.398438 76.886719 C 47.78125 76.667969 47.914062 76.183594 47.695312 75.804688 L 41.511719 64.980469 C 46.8125 65.527344 64.859375 67.941406 75.199219 76.164062 C 75.351562 76.675781 75.785156 76.585938 75.910156 76.546875 Z M 75.910156 76.546875 " fill-opacity="1" fill-rule="evenodd"/></g><path fill="#064e3b" d="M 51.320312 61.660156 C 51.320312 61.660156 57.910156 62.660156 64.457031 65.660156 C 68.757812 67.628906 73.058594 70.457031 75.390625 74.46875 C 75.570312 74.78125 75.972656 74.890625 76.28125 74.707031 C 76.59375 74.527344 76.699219 74.125 76.519531 73.816406 C 74.058594 69.574219 69.546875 66.554688 65 64.472656 C 58.28125 61.394531 51.515625 60.371094 51.515625 60.371094 C 51.160156 60.316406 50.828125 60.5625 50.773438 60.917969 C 50.71875 61.273438 50.964844 61.609375 51.320312 61.660156 Z M 51.320312 61.660156 " fill-opacity="1" fill-rule="evenodd"/><path fill="#064e3b" d="M 100.382812 60.371094 C 100.382812 60.371094 93.621094 61.394531 86.898438 64.472656 C 82.351562 66.554688 77.84375 69.574219 75.378906 73.816406 C 75.199219 74.125 75.304688 74.527344 75.617188 74.707031 C 75.929688 74.890625 76.328125 74.78125 76.511719 74.46875 C 78.839844 70.457031 83.140625 67.628906 87.441406 65.660156 C 93.988281 62.660156 100.578125 61.660156 100.578125 61.660156 C 100.933594 61.609375 101.179688 61.273438 101.125 60.917969 C 101.070312 60.5625 100.738281 60.316406 100.382812 60.371094 Z M 100.382812 60.371094 " fill-opacity="1" fill-rule="evenodd"/><g clip-path="url(#5ad5d81d3b)"><path fill="#064e3b" d="M 57.460938 56.457031 C 57.460938 56.457031 63.074219 59.089844 68.144531 63.445312 C 71.503906 66.335938 74.628906 69.976562 75.695312 74.117188 C 75.730469 74.253906 75.871094 74.335938 76.007812 74.300781 C 76.144531 74.265625 76.226562 74.128906 76.191406 73.992188 C 75.097656 69.753906 71.914062 66.015625 68.476562 63.058594 C 63.351562 58.65625 57.675781 55.992188 57.675781 55.992188 C 57.550781 55.929688 57.398438 55.988281 57.339844 56.113281 C 57.277344 56.242188 57.332031 56.394531 57.460938 56.457031 Z M 57.460938 56.457031 " fill-opacity="1" fill-rule="evenodd"/></g><g clip-path="url(#8b39bc2978)"><path fill="#064e3b" d="M 94.222656 55.992188 C 94.222656 55.992188 88.546875 58.65625 83.421875 63.058594 C 79.984375 66.015625 76.800781 69.753906 75.707031 73.992188 C 75.671875 74.128906 75.753906 74.265625 75.890625 74.300781 C 76.027344 74.335938 76.167969 74.253906 76.203125 74.117188 C 77.269531 69.976562 80.394531 66.335938 83.753906 63.445312 C 88.824219 59.089844 94.4375 56.457031 94.4375 56.457031 C 94.566406 56.394531 94.621094 56.242188 94.558594 56.113281 C 94.5 55.988281 94.347656 55.929688 94.222656 55.992188 Z M 94.222656 55.992188 " fill-opacity="1" fill-rule="evenodd"/></g></svg>