<svg xmlns="http://www.w3.org/2000/svg" xmlns:xlink="http://www.w3.org/1999/xlink" width="512" zoomAndPan="magnify" viewBox="0 0 384 383.999986" height="512" preserveAspectRatio="xMidYMid meet" version="1.0"><defs><clipPath id="ddec772f07"><path d="M 30 28.210938 L 353.9375 28.210938 L 353.9375 352 L 30 352 Z M 30 28.210938 " clip-rule="nonzero"/></clipPath><clipPath id="fbeecfd004"><path d="M 102.703125 200.582031 L 270 200.582031 L 270 305.707031 L 102.703125 305.707031 Z M 102.703125 200.582031 " clip-rule="nonzero"/></clipPath><clipPath id="a8cd003142"><path d="M 102.703125 200.582031 L 306.304688 200.582031 L 306.304688 305.707031 L 102.703125 305.707031 Z M 102.703125 200.582031 " clip-rule="nonzero"/></clipPath><clipPath id="d65fc2a21a"><path d="M 231.957031 303.734375 L 320 303.734375 L 320 354.949219 L 231.957031 354.949219 Z M 231.957031 303.734375 " clip-rule="nonzero"/></clipPath><clipPath id="4be3244cb1"><path d="M 231.957031 303.734375 L 355.949219 303.734375 L 355.949219 354.949219 L 231.957031 354.949219 Z M 231.957031 303.734375 " clip-rule="nonzero"/></clipPath><clipPath id="57ca1fb5cd"><path d="M 107.640625 168 L 277 168 L 277 199.902344 L 107.640625 199.902344 Z M 107.640625 168 " clip-rule="nonzero"/></clipPath><clipPath id="ae3dd3dff7"><path d="M 149 151.382812 L 193 151.382812 L 193 194 L 149 194 Z M 149 151.382812 " clip-rule="nonzero"/></clipPath><clipPath id="6ef5a94ced"><path d="M 191 151.382812 L 235 151.382812 L 235 194 L 191 194 Z M 191 151.382812 " clip-rule="nonzero"/></clipPath><clipPath id="c462971e4a"><rect x="0" width="357" y="0" height="356"/></clipPath></defs><g><g clip-path="url(#c462971e4a)"><g clip-path="url(#ddec772f07)"><path fill="#fdf9ed" d="M 354.523438 190.027344 C 354.523438 192.675781 354.460938 195.324219 354.328125 197.96875 C 354.199219 200.613281 354.003906 203.253906 353.746094 205.890625 C 353.484375 208.523438 353.160156 211.152344 352.773438 213.773438 C 352.382812 216.390625 351.929688 219 351.414062 221.597656 C 350.898438 224.195312 350.316406 226.777344 349.675781 229.347656 C 349.03125 231.914062 348.324219 234.46875 347.554688 237 C 346.789062 239.535156 345.957031 242.050781 345.066406 244.542969 C 344.171875 247.035156 343.21875 249.507812 342.207031 251.953125 C 341.191406 254.398438 340.121094 256.820312 338.988281 259.214844 C 337.855469 261.609375 336.664062 263.972656 335.417969 266.308594 C 334.167969 268.644531 332.863281 270.945312 331.503906 273.21875 C 330.140625 275.488281 328.722656 277.726562 327.253906 279.929688 C 325.78125 282.128906 324.257812 284.296875 322.679688 286.421875 C 321.101562 288.550781 319.472656 290.636719 317.792969 292.683594 C 316.113281 294.730469 314.382812 296.734375 312.605469 298.699219 C 310.828125 300.660156 309.003906 302.578125 307.128906 304.449219 C 305.257812 306.320312 303.339844 308.148438 301.378906 309.925781 C 299.414062 311.703125 297.410156 313.433594 295.363281 315.113281 C 293.316406 316.792969 291.230469 318.421875 289.101562 320 C 286.976562 321.578125 284.808594 323.101562 282.609375 324.574219 C 280.40625 326.042969 278.167969 327.460938 275.898438 328.824219 C 273.625 330.183594 271.324219 331.488281 268.988281 332.738281 C 266.652344 333.984375 264.289062 335.175781 261.894531 336.308594 C 259.5 337.441406 257.078125 338.511719 254.632812 339.527344 C 252.1875 340.539062 249.714844 341.492188 247.222656 342.386719 C 244.730469 343.277344 242.214844 344.109375 239.679688 344.875 C 237.148438 345.644531 234.59375 346.351562 232.027344 346.996094 C 229.457031 347.636719 226.875 348.21875 224.277344 348.734375 C 221.679688 349.25 219.070312 349.703125 216.453125 350.09375 C 213.832031 350.480469 211.203125 350.804688 208.570312 351.066406 C 205.933594 351.324219 203.292969 351.519531 200.648438 351.648438 C 198.003906 351.78125 195.355469 351.84375 192.707031 351.84375 C 190.058594 351.84375 187.414062 351.78125 184.769531 351.648438 C 182.125 351.519531 179.484375 351.324219 176.847656 351.066406 C 174.210938 350.804688 171.585938 350.480469 168.964844 350.09375 C 166.34375 349.703125 163.738281 349.25 161.140625 348.734375 C 158.542969 348.21875 155.960938 347.636719 153.390625 346.996094 C 150.820312 346.351562 148.269531 345.644531 145.734375 344.875 C 143.203125 344.109375 140.6875 343.277344 138.195312 342.386719 C 135.699219 341.492188 133.230469 340.539062 130.785156 339.527344 C 128.335938 338.511719 125.917969 337.441406 123.523438 336.308594 C 121.128906 335.175781 118.765625 333.984375 116.429688 332.738281 C 114.09375 331.488281 111.789062 330.183594 109.519531 328.824219 C 107.246094 327.460938 105.011719 326.042969 102.808594 324.574219 C 100.605469 323.101562 98.441406 321.578125 96.316406 320 C 94.1875 318.421875 92.101562 316.792969 90.054688 315.113281 C 88.007812 313.433594 86 311.703125 84.039062 309.925781 C 82.078125 308.148438 80.160156 306.320312 78.289062 304.449219 C 76.414062 302.578125 74.589844 300.660156 72.8125 298.699219 C 71.03125 296.734375 69.304688 294.730469 67.621094 292.683594 C 65.941406 290.636719 64.3125 288.550781 62.738281 286.421875 C 61.160156 284.296875 59.632812 282.128906 58.164062 279.929688 C 56.691406 277.726562 55.277344 275.488281 53.914062 273.21875 C 52.550781 270.945312 51.246094 268.644531 50 266.308594 C 48.75 263.972656 47.5625 261.609375 46.429688 259.214844 C 45.296875 256.820312 44.222656 254.398438 43.210938 251.953125 C 42.195312 249.507812 41.242188 247.035156 40.351562 244.542969 C 39.460938 242.050781 38.628906 239.535156 37.859375 237 C 37.089844 234.46875 36.386719 231.914062 35.742188 229.347656 C 35.097656 226.777344 34.519531 224.195312 34 221.597656 C 33.484375 219 33.03125 216.390625 32.644531 213.773438 C 32.253906 211.152344 31.929688 208.523438 31.671875 205.890625 C 31.410156 203.253906 31.21875 200.613281 31.085938 197.96875 C 30.957031 195.324219 30.890625 192.675781 30.890625 190.027344 C 30.890625 187.378906 30.957031 184.734375 31.085938 182.089844 C 31.21875 179.445312 31.410156 176.804688 31.671875 174.167969 C 31.929688 171.53125 32.253906 168.90625 32.644531 166.285156 C 33.03125 163.664062 33.484375 161.058594 34 158.460938 C 34.519531 155.863281 35.097656 153.28125 35.742188 150.710938 C 36.386719 148.140625 37.089844 145.589844 37.859375 143.054688 C 38.628906 140.523438 39.460938 138.007812 40.351562 135.515625 C 41.242188 133.019531 42.195312 130.550781 43.210938 128.105469 C 44.222656 125.65625 45.296875 123.238281 46.429688 120.84375 C 47.5625 118.449219 48.75 116.085938 50 113.75 C 51.246094 111.414062 52.550781 109.109375 53.914062 106.839844 C 55.277344 104.566406 56.691406 102.332031 58.164062 100.128906 C 59.632812 97.925781 61.160156 95.761719 62.738281 93.636719 C 64.3125 91.507812 65.941406 89.421875 67.621094 87.375 C 69.304688 85.328125 71.03125 83.320312 72.8125 81.359375 C 74.589844 79.398438 76.414062 77.480469 78.289062 75.609375 C 80.160156 73.734375 82.078125 71.910156 84.039062 70.132812 C 86 68.351562 88.007812 66.625 90.054688 64.941406 C 92.101562 63.261719 94.1875 61.632812 96.316406 60.058594 C 98.441406 58.480469 100.605469 56.953125 102.808594 55.484375 C 105.011719 54.011719 107.246094 52.597656 109.519531 51.234375 C 111.789062 49.871094 114.09375 48.566406 116.429688 47.320312 C 118.765625 46.070312 121.128906 44.882812 123.523438 43.75 C 125.917969 42.617188 128.335938 41.542969 130.785156 40.53125 C 133.230469 39.515625 135.699219 38.5625 138.195312 37.671875 C 140.6875 36.78125 143.203125 35.949219 145.734375 35.179688 C 148.269531 34.410156 150.820312 33.707031 153.390625 33.0625 C 155.960938 32.417969 158.542969 31.839844 161.140625 31.320312 C 163.738281 30.804688 166.34375 30.351562 168.964844 29.964844 C 171.585938 29.574219 174.210938 29.25 176.847656 28.992188 C 179.484375 28.730469 182.125 28.539062 184.769531 28.40625 C 187.414062 28.277344 190.058594 28.210938 192.707031 28.210938 C 195.355469 28.210938 198.003906 28.277344 200.648438 28.40625 C 203.292969 28.539062 205.933594 28.730469 208.570312 28.992188 C 211.203125 29.25 213.832031 29.574219 216.453125 29.964844 C 219.070312 30.351562 221.679688 30.804688 224.277344 31.320312 C 226.875 31.839844 229.457031 32.417969 232.027344 33.0625 C 234.59375 33.707031 237.148438 34.410156 239.679688 35.179688 C 242.214844 35.949219 244.730469 36.78125 247.222656 37.671875 C 249.714844 38.5625 252.1875 39.515625 254.632812 40.53125 C 257.078125 41.542969 259.5 42.617188 261.894531 43.75 C 264.289062 44.882812 266.652344 46.070312 268.988281 47.320312 C 271.324219 48.566406 273.625 49.871094 275.898438 51.234375 C 278.167969 52.597656 280.40625 54.011719 282.609375 55.484375 C 284.808594 56.953125 286.976562 58.480469 289.101562 60.058594 C 291.230469 61.632812 293.316406 63.261719 295.363281 64.941406 C 297.410156 66.625 299.414062 68.351562 301.378906 70.132812 C 303.339844 71.910156 305.257812 73.734375 307.128906 75.609375 C 309.003906 77.480469 310.828125 79.398438 312.605469 81.359375 C 314.382812 83.320312 316.113281 85.328125 317.792969 87.375 C 319.472656 89.421875 321.101562 91.507812 322.679688 93.636719 C 324.257812 95.761719 325.78125 97.925781 327.253906 100.128906 C 328.722656 102.332031 330.140625 104.566406 331.503906 106.839844 C 332.863281 109.109375 334.167969 111.414062 335.417969 113.75 C 336.664062 116.085938 337.855469 118.449219 338.988281 120.84375 C 340.121094 123.238281 341.191406 125.65625 342.207031 128.105469 C 343.21875 130.550781 344.171875 133.019531 345.066406 135.515625 C 345.957031 138.007812 346.789062 140.523438 347.554688 143.054688 C 348.324219 145.589844 349.03125 148.140625 349.675781 150.710938 C 350.316406 153.28125 350.898438 155.863281 351.414062 158.460938 C 351.929688 161.058594 352.382812 163.664062 352.773438 166.285156 C 353.160156 168.90625 353.484375 171.53125 353.746094 174.167969 C 354.003906 176.804688 354.199219 179.445312 354.328125 182.089844 C 354.460938 184.734375 354.523438 187.378906 354.523438 190.027344 Z M 354.523438 190.027344 " fill-opacity="1" fill-rule="nonzero"/></g><path fill="#064e3b" d="M 346.109375 190.027344 C 346.109375 192.539062 346.046875 195.046875 345.925781 197.554688 C 345.800781 200.0625 345.617188 202.566406 345.371094 205.066406 C 345.125 207.5625 344.816406 210.054688 344.449219 212.539062 C 344.082031 215.019531 343.652344 217.492188 343.164062 219.957031 C 342.671875 222.417969 342.121094 224.867188 341.511719 227.300781 C 340.902344 229.738281 340.234375 232.15625 339.503906 234.558594 C 338.777344 236.960938 337.988281 239.34375 337.140625 241.707031 C 336.296875 244.070312 335.394531 246.414062 334.433594 248.734375 C 333.472656 251.050781 332.453125 253.347656 331.382812 255.617188 C 330.308594 257.886719 329.179688 260.128906 327.996094 262.339844 C 326.8125 264.554688 325.574219 266.738281 324.285156 268.894531 C 322.996094 271.046875 321.652344 273.167969 320.257812 275.253906 C 318.863281 277.339844 317.417969 279.394531 315.921875 281.410156 C 314.425781 283.425781 312.882812 285.40625 311.289062 287.34375 C 309.695312 289.285156 308.058594 291.1875 306.371094 293.046875 C 304.683594 294.90625 302.953125 296.722656 301.179688 298.5 C 299.402344 300.273438 297.585938 302.003906 295.726562 303.691406 C 293.867188 305.378906 291.964844 307.015625 290.023438 308.609375 C 288.085938 310.203125 286.105469 311.746094 284.089844 313.242188 C 282.074219 314.738281 280.019531 316.183594 277.933594 317.578125 C 275.847656 318.972656 273.726562 320.316406 271.574219 321.605469 C 269.417969 322.894531 267.234375 324.132812 265.019531 325.316406 C 262.808594 326.5 260.566406 327.628906 258.296875 328.703125 C 256.027344 329.773438 253.730469 330.792969 251.414062 331.753906 C 249.09375 332.714844 246.75 333.617188 244.386719 334.460938 C 242.023438 335.308594 239.640625 336.097656 237.238281 336.824219 C 234.835938 337.554688 232.417969 338.222656 229.980469 338.832031 C 227.546875 339.441406 225.097656 339.992188 222.636719 340.480469 C 220.171875 340.972656 217.699219 341.402344 215.21875 341.769531 C 212.734375 342.136719 210.242188 342.445312 207.746094 342.691406 C 205.246094 342.9375 202.742188 343.121094 200.234375 343.246094 C 197.726562 343.367188 195.21875 343.429688 192.707031 343.429688 C 190.199219 343.429688 187.6875 343.367188 185.179688 343.246094 C 182.671875 343.121094 180.171875 342.9375 177.671875 342.691406 C 175.175781 342.445312 172.683594 342.136719 170.199219 341.769531 C 167.714844 341.402344 165.242188 340.972656 162.78125 340.480469 C 160.320312 339.992188 157.871094 339.441406 155.433594 338.832031 C 153 338.222656 150.582031 337.554688 148.179688 336.824219 C 145.777344 336.097656 143.394531 335.308594 141.027344 334.460938 C 138.664062 333.617188 136.324219 332.714844 134.003906 331.753906 C 131.683594 330.792969 129.390625 329.773438 127.121094 328.703125 C 124.851562 327.628906 122.609375 326.5 120.394531 325.316406 C 118.179688 324.132812 115.996094 322.894531 113.84375 321.605469 C 111.691406 320.316406 109.570312 318.972656 107.484375 317.578125 C 105.394531 316.183594 103.34375 314.738281 101.328125 313.242188 C 99.3125 311.746094 97.332031 310.203125 95.390625 308.609375 C 93.449219 307.015625 91.550781 305.378906 89.691406 303.691406 C 87.828125 302.003906 86.011719 300.273438 84.238281 298.5 C 82.460938 296.722656 80.730469 294.90625 79.046875 293.046875 C 77.359375 291.1875 75.71875 289.285156 74.128906 287.34375 C 72.535156 285.40625 70.992188 283.425781 69.496094 281.410156 C 68 279.394531 66.554688 277.339844 65.160156 275.253906 C 63.765625 273.167969 62.421875 271.046875 61.132812 268.894531 C 59.839844 266.738281 58.605469 264.554688 57.421875 262.339844 C 56.238281 260.128906 55.109375 257.886719 54.035156 255.617188 C 52.960938 253.347656 51.945312 251.050781 50.984375 248.734375 C 50.023438 246.414062 49.121094 244.070312 48.273438 241.707031 C 47.429688 239.34375 46.640625 236.960938 45.914062 234.558594 C 45.183594 232.15625 44.515625 229.738281 43.902344 227.300781 C 43.292969 224.867188 42.746094 222.417969 42.253906 219.957031 C 41.765625 217.492188 41.335938 215.019531 40.96875 212.539062 C 40.597656 210.054688 40.292969 207.5625 40.046875 205.066406 C 39.800781 202.566406 39.613281 200.0625 39.492188 197.554688 C 39.367188 195.046875 39.308594 192.539062 39.308594 190.027344 C 39.308594 187.519531 39.367188 185.007812 39.492188 182.5 C 39.613281 179.992188 39.800781 177.492188 40.046875 174.992188 C 40.292969 172.492188 40.597656 170.003906 40.96875 167.519531 C 41.335938 165.035156 41.765625 162.5625 42.253906 160.101562 C 42.746094 157.640625 43.292969 155.191406 43.902344 152.753906 C 44.515625 150.320312 45.183594 147.902344 45.914062 145.5 C 46.640625 143.097656 47.429688 140.714844 48.273438 138.347656 C 49.121094 135.984375 50.023438 133.644531 50.984375 131.324219 C 51.945312 129.003906 52.960938 126.710938 54.035156 124.441406 C 55.109375 122.171875 56.238281 119.929688 57.421875 117.714844 C 58.605469 115.5 59.839844 113.316406 61.132812 111.164062 C 62.421875 109.011719 63.765625 106.890625 65.160156 104.804688 C 66.554688 102.714844 68 100.664062 69.496094 98.648438 C 70.992188 96.632812 72.535156 94.652344 74.128906 92.710938 C 75.71875 90.769531 77.359375 88.871094 79.046875 87.011719 C 80.730469 85.148438 82.460938 83.332031 84.238281 81.558594 C 86.011719 79.78125 87.828125 78.050781 89.691406 76.367188 C 91.550781 74.679688 93.449219 73.039062 95.390625 71.449219 C 97.332031 69.855469 99.3125 68.3125 101.328125 66.816406 C 103.34375 65.320312 105.394531 63.875 107.484375 62.480469 C 109.570312 61.085938 111.691406 59.742188 113.84375 58.453125 C 115.996094 57.160156 118.179688 55.925781 120.394531 54.742188 C 122.609375 53.558594 124.851562 52.429688 127.121094 51.355469 C 129.390625 50.28125 131.683594 49.265625 134.003906 48.304688 C 136.324219 47.34375 138.664062 46.441406 141.027344 45.59375 C 143.394531 44.75 145.777344 43.960938 148.179688 43.234375 C 150.582031 42.503906 153 41.835938 155.433594 41.222656 C 157.871094 40.613281 160.320312 40.0625 162.78125 39.574219 C 165.242188 39.085938 167.714844 38.65625 170.199219 38.289062 C 172.683594 37.917969 175.175781 37.613281 177.671875 37.367188 C 180.171875 37.121094 182.671875 36.933594 185.179688 36.8125 C 187.6875 36.6875 190.199219 36.628906 192.707031 36.628906 C 195.21875 36.628906 197.726562 36.6875 200.234375 36.8125 C 202.742188 36.933594 205.246094 37.121094 207.746094 37.367188 C 210.242188 37.613281 212.734375 37.917969 215.21875 38.289062 C 217.699219 38.65625 220.171875 39.085938 222.636719 39.574219 C 225.097656 40.0625 227.546875 40.613281 229.980469 41.222656 C 232.417969 41.835938 234.835938 42.503906 237.238281 43.234375 C 239.640625 43.960938 242.023438 44.75 244.386719 45.59375 C 246.75 46.441406 249.09375 47.34375 251.414062 48.304688 C 253.730469 49.265625 256.027344 50.28125 258.296875 51.355469 C 260.566406 52.429688 262.808594 53.558594 265.019531 54.742188 C 267.234375 55.925781 269.417969 57.160156 271.574219 58.453125 C 273.726562 59.742188 275.847656 61.085938 277.933594 62.480469 C 280.019531 63.875 282.074219 65.320312 284.089844 66.816406 C 286.105469 68.3125 288.085938 69.855469 290.023438 71.449219 C 291.964844 73.039062 293.867188 74.679688 295.726562 76.367188 C 297.585938 78.050781 299.402344 79.78125 301.179688 81.558594 C 302.953125 83.332031 304.683594 85.148438 306.371094 87.011719 C 308.058594 88.871094 309.695312 90.769531 311.289062 92.710938 C 312.882812 94.652344 314.425781 96.632812 315.921875 98.648438 C 317.417969 100.664062 318.863281 102.714844 320.257812 104.804688 C 321.652344 106.890625 322.996094 109.011719 324.285156 111.164062 C 325.574219 113.316406 326.8125 115.5 327.996094 117.714844 C 329.179688 119.929688 330.308594 122.171875 331.382812 124.441406 C 332.453125 126.710938 333.472656 129.003906 334.433594 131.324219 C 335.394531 133.644531 336.296875 135.984375 337.140625 138.347656 C 337.988281 140.714844 338.777344 143.097656 339.503906 145.5 C 340.234375 147.902344 340.902344 150.320312 341.511719 152.753906 C 342.121094 155.191406 342.671875 157.640625 343.164062 160.101562 C 343.652344 162.5625 344.082031 165.035156 344.449219 167.519531 C 344.816406 170.003906 345.125 172.492188 345.371094 174.992188 C 345.617188 177.492188 345.800781 179.992188 345.925781 182.5 C 346.046875 185.007812 346.109375 187.519531 346.109375 190.027344 Z M 346.109375 190.027344 " fill-opacity="1" fill-rule="nonzero"/><path fill="#fdf9ed" d="M 192.707031 44.394531 C 194.789062 44.394531 196.867188 44.441406 198.945312 44.53125 C 201.023438 44.621094 203.097656 44.757812 205.167969 44.9375 C 207.242188 45.117188 209.308594 45.339844 211.371094 45.605469 C 213.433594 45.875 215.488281 46.1875 217.535156 46.542969 C 219.585938 46.898438 221.625 47.296875 223.65625 47.742188 C 225.691406 48.183594 227.710938 48.671875 229.722656 49.199219 C 231.734375 49.730469 233.730469 50.300781 235.71875 50.917969 C 237.703125 51.53125 239.675781 52.191406 241.636719 52.890625 C 243.59375 53.589844 245.535156 54.332031 247.460938 55.113281 C 249.390625 55.898438 251.296875 56.722656 253.191406 57.585938 C 255.082031 58.453125 256.953125 59.355469 258.804688 60.300781 C 260.65625 61.246094 262.488281 62.230469 264.300781 63.253906 C 266.109375 64.277344 267.898438 65.339844 269.664062 66.4375 C 271.425781 67.539062 273.167969 68.675781 274.882812 69.851562 C 276.601562 71.023438 278.289062 72.234375 279.957031 73.480469 C 281.621094 74.730469 283.257812 76.011719 284.867188 77.328125 C 286.476562 78.644531 288.054688 79.996094 289.609375 81.378906 C 291.160156 82.765625 292.679688 84.183594 294.171875 85.632812 C 295.664062 87.082031 297.121094 88.5625 298.550781 90.074219 C 299.976562 91.589844 301.371094 93.128906 302.730469 94.703125 C 304.09375 96.273438 305.421875 97.875 306.714844 99.503906 C 308.007812 101.132812 309.265625 102.789062 310.484375 104.472656 C 311.707031 106.152344 312.894531 107.863281 314.042969 109.59375 C 315.191406 111.328125 316.300781 113.085938 317.375 114.867188 C 318.449219 116.648438 319.484375 118.453125 320.480469 120.277344 C 321.476562 122.101562 322.433594 123.949219 323.351562 125.816406 C 324.269531 127.679688 325.144531 129.566406 325.980469 131.46875 C 326.816406 133.375 327.613281 135.296875 328.367188 137.234375 C 329.121094 139.171875 329.835938 141.125 330.503906 143.09375 C 331.175781 145.0625 331.804688 147.042969 332.390625 149.039062 C 332.976562 151.035156 333.519531 153.042969 334.019531 155.058594 C 334.515625 157.078125 334.972656 159.105469 335.386719 161.144531 C 335.800781 163.183594 336.167969 165.230469 336.492188 167.285156 C 336.820312 169.335938 337.101562 171.398438 337.335938 173.464844 C 337.574219 175.53125 337.765625 177.601562 337.914062 179.675781 C 338.0625 181.75 338.167969 183.824219 338.226562 185.902344 C 338.285156 187.984375 338.300781 190.0625 338.273438 192.140625 C 338.242188 194.21875 338.167969 196.296875 338.050781 198.375 C 337.929688 200.449219 337.769531 202.523438 337.5625 204.59375 C 337.355469 206.660156 337.101562 208.726562 336.804688 210.785156 C 336.511719 212.84375 336.171875 214.894531 335.789062 216.9375 C 335.402344 218.980469 334.976562 221.015625 334.503906 223.042969 C 334.035156 225.066406 333.519531 227.082031 332.964844 229.085938 C 332.40625 231.089844 331.808594 233.082031 331.164062 235.058594 C 330.523438 237.035156 329.839844 239 329.113281 240.949219 C 328.386719 242.898438 327.617188 244.828125 326.808594 246.746094 C 326 248.660156 325.148438 250.558594 324.261719 252.4375 C 323.371094 254.316406 322.4375 256.175781 321.46875 258.015625 C 320.5 259.855469 319.492188 261.671875 318.441406 263.46875 C 317.394531 265.265625 316.308594 267.039062 315.183594 268.789062 C 314.0625 270.539062 312.898438 272.265625 311.703125 273.964844 C 310.503906 275.664062 309.269531 277.335938 308.003906 278.984375 C 306.734375 280.632812 305.429688 282.25 304.089844 283.84375 C 302.75 285.433594 301.378906 286.996094 299.972656 288.527344 C 298.566406 290.0625 297.128906 291.5625 295.660156 293.035156 C 294.191406 294.507812 292.6875 295.945312 291.15625 297.351562 C 289.625 298.757812 288.066406 300.132812 286.476562 301.472656 C 284.882812 302.8125 283.265625 304.117188 281.621094 305.386719 C 279.972656 306.660156 278.300781 307.894531 276.601562 309.09375 C 274.902344 310.292969 273.179688 311.453125 271.429688 312.578125 C 269.679688 313.703125 267.910156 314.789062 266.113281 315.839844 C 264.316406 316.890625 262.5 317.898438 260.660156 318.871094 C 258.824219 319.84375 256.964844 320.773438 255.085938 321.667969 C 253.207031 322.558594 251.308594 323.410156 249.394531 324.21875 C 247.199219 325.144531 244.980469 326.015625 242.742188 326.832031 C 240.503906 327.648438 238.246094 328.410156 235.972656 329.117188 C 233.695312 329.824219 231.402344 330.472656 229.097656 331.066406 C 226.789062 331.660156 224.46875 332.195312 222.132812 332.675781 C 219.800781 333.15625 217.453125 333.578125 215.101562 333.941406 C 212.746094 334.308594 210.382812 334.613281 208.011719 334.863281 C 205.644531 335.109375 203.269531 335.300781 200.890625 335.433594 C 198.511719 335.566406 196.128906 335.640625 193.746094 335.65625 C 191.363281 335.671875 188.980469 335.625 186.601562 335.523438 C 184.21875 335.421875 181.84375 335.265625 179.46875 335.046875 C 177.097656 334.828125 174.730469 334.550781 172.371094 334.214844 C 170.011719 333.882812 167.664062 333.492188 165.324219 333.039062 C 162.984375 332.589844 160.65625 332.085938 158.339844 331.519531 C 156.023438 330.957031 153.726562 330.335938 151.441406 329.660156 C 149.15625 328.984375 146.890625 328.25 144.640625 327.460938 C 142.390625 326.675781 140.164062 325.832031 137.957031 324.933594 C 135.746094 324.035156 133.5625 323.085938 131.402344 322.082031 C 129.242188 321.078125 127.105469 320.019531 125 318.910156 C 122.890625 317.800781 120.808594 316.640625 118.757812 315.429688 C 116.703125 314.21875 114.683594 312.957031 112.695312 311.648438 C 110.703125 310.335938 108.746094 308.976562 106.824219 307.570312 C 104.898438 306.164062 103.011719 304.710938 101.160156 303.210938 C 99.308594 301.714844 97.492188 300.167969 95.71875 298.582031 C 93.941406 296.992188 92.203125 295.363281 90.507812 293.6875 C 88.8125 292.015625 87.15625 290.300781 85.546875 288.546875 C 83.933594 286.792969 82.363281 285 80.839844 283.167969 C 79.316406 281.335938 77.835938 279.46875 76.40625 277.5625 C 74.972656 275.660156 73.585938 273.722656 72.25 271.75 C 70.914062 269.777344 69.625 267.773438 68.386719 265.738281 C 67.144531 263.703125 65.957031 261.636719 64.820312 259.542969 C 63.683594 257.453125 62.597656 255.332031 61.5625 253.183594 C 60.527344 251.035156 59.546875 248.867188 58.621094 246.671875 C 57.695312 244.476562 56.820312 242.257812 56.003906 240.023438 C 55.183594 237.785156 54.421875 235.527344 53.710938 233.25 C 53.003906 230.976562 52.351562 228.683594 51.757812 226.378906 C 51.164062 224.070312 50.625 221.75 50.144531 219.417969 C 49.660156 217.082031 49.238281 214.738281 48.871094 212.382812 C 48.503906 210.027344 48.195312 207.667969 47.945312 205.296875 C 47.695312 202.929688 47.503906 200.554688 47.371094 198.175781 C 47.234375 195.796875 47.160156 193.414062 47.144531 191.03125 C 47.125 188.648438 47.167969 186.265625 47.265625 183.886719 C 47.367188 181.503906 47.523438 179.128906 47.742188 176.753906 C 47.957031 174.382812 48.230469 172.015625 48.5625 169.65625 C 48.898438 167.296875 49.285156 164.945312 49.734375 162.605469 C 50.183594 160.265625 50.6875 157.9375 51.25 155.621094 C 51.8125 153.308594 52.429688 151.007812 53.105469 148.722656 C 53.78125 146.4375 54.511719 144.167969 55.296875 141.917969 C 56.082031 139.667969 56.925781 137.441406 57.820312 135.234375 C 58.714844 133.023438 59.664062 130.839844 60.667969 128.679688 C 61.671875 126.515625 62.726562 124.378906 63.832031 122.269531 C 64.941406 120.160156 66.101562 118.078125 67.308594 116.027344 C 68.519531 113.972656 69.777344 111.953125 71.085938 109.960938 C 72.398438 107.96875 73.753906 106.011719 75.160156 104.085938 C 76.5625 102.164062 78.015625 100.273438 79.511719 98.421875 C 81.011719 96.566406 82.554688 94.75 84.140625 92.972656 C 85.726562 91.195312 87.355469 89.457031 89.027344 87.761719 C 90.699219 86.0625 92.414062 84.40625 94.167969 82.792969 C 95.921875 81.179688 97.710938 79.609375 99.542969 78.085938 C 101.375 76.558594 103.238281 75.078125 105.144531 73.644531 C 107.046875 72.210938 108.984375 70.824219 110.953125 69.484375 C 112.925781 68.148438 114.929688 66.855469 116.960938 65.617188 C 118.996094 64.375 121.058594 63.1875 123.152344 62.046875 C 125.246094 60.90625 127.363281 59.820312 129.511719 58.785156 C 131.65625 57.75 133.828125 56.765625 136.023438 55.835938 C 144.988281 52.042969 154.242188 49.183594 163.789062 47.253906 C 173.332031 45.328125 182.972656 44.375 192.707031 44.394531 M 192.707031 40.511719 C 110.132812 40.511719 43.191406 107.453125 43.191406 190.027344 C 43.191406 272.605469 110.132812 339.546875 192.707031 339.546875 C 275.285156 339.546875 342.226562 272.605469 342.226562 190.027344 C 342.226562 107.453125 275.285156 40.511719 192.707031 40.511719 Z M 192.707031 40.511719 " fill-opacity="1" fill-rule="nonzero"/><path fill="#fdf9ed" d="M 192.707031 99.410156 C 194.4375 99.410156 196.167969 99.460938 197.894531 99.558594 C 199.621094 99.660156 201.34375 99.808594 203.066406 100.003906 C 204.785156 100.203125 206.496094 100.449219 208.199219 100.746094 C 209.90625 101.042969 211.601562 101.386719 213.285156 101.777344 C 214.96875 102.171875 216.644531 102.613281 218.300781 103.101562 C 219.960938 103.589844 221.605469 104.125 223.234375 104.707031 C 224.867188 105.292969 226.476562 105.921875 228.070312 106.597656 C 229.664062 107.269531 231.234375 107.992188 232.789062 108.757812 C 234.339844 109.523438 235.867188 110.332031 237.375 111.183594 C 238.878906 112.035156 240.359375 112.933594 241.8125 113.871094 C 243.265625 114.808594 244.691406 115.785156 246.089844 116.804688 C 247.488281 117.824219 248.859375 118.882812 250.195312 119.980469 C 251.53125 121.078125 252.835938 122.214844 254.109375 123.386719 C 255.382812 124.558594 256.621094 125.765625 257.824219 127.007812 C 259.027344 128.253906 260.195312 129.53125 261.324219 130.839844 C 262.453125 132.148438 263.546875 133.492188 264.597656 134.863281 C 265.652344 136.238281 266.667969 137.640625 267.640625 139.070312 C 268.613281 140.5 269.542969 141.957031 270.433594 143.441406 C 271.324219 144.925781 272.167969 146.433594 272.972656 147.96875 C 273.773438 149.5 274.535156 151.054688 275.246094 152.628906 C 275.960938 154.207031 276.628906 155.800781 277.253906 157.414062 C 277.875 159.03125 278.453125 160.660156 278.980469 162.308594 C 279.511719 163.957031 279.992188 165.617188 280.425781 167.292969 C 280.859375 168.96875 281.246094 170.652344 281.585938 172.351562 C 281.921875 174.046875 282.210938 175.753906 282.449219 177.464844 C 282.691406 179.179688 282.878906 180.898438 283.023438 182.625 C 283.164062 184.347656 283.253906 186.074219 283.296875 187.804688 C 283.339844 189.535156 283.332031 191.265625 283.277344 192.992188 C 283.21875 194.722656 283.113281 196.449219 282.957031 198.171875 C 282.804688 199.894531 282.597656 201.613281 282.34375 203.324219 C 282.089844 205.035156 281.789062 206.738281 281.4375 208.433594 C 281.085938 210.128906 280.683594 211.8125 280.238281 213.480469 C 279.789062 215.152344 279.292969 216.808594 278.75 218.453125 C 278.207031 220.097656 277.621094 221.722656 276.984375 223.332031 C 276.347656 224.941406 275.667969 226.53125 274.9375 228.101562 C 274.210938 229.671875 273.441406 231.21875 272.625 232.746094 C 271.808594 234.269531 270.949219 235.773438 270.050781 237.25 C 269.148438 238.726562 268.203125 240.175781 267.21875 241.597656 C 266.234375 243.019531 265.210938 244.414062 264.144531 245.777344 C 263.082031 247.144531 261.980469 248.476562 260.835938 249.777344 C 259.695312 251.078125 258.519531 252.34375 257.304688 253.578125 C 256.09375 254.8125 254.84375 256.007812 253.5625 257.171875 C 252.28125 258.332031 250.964844 259.457031 249.621094 260.542969 C 248.273438 261.632812 246.898438 262.679688 245.492188 263.6875 C 244.085938 264.695312 242.648438 265.660156 241.1875 266.585938 C 239.726562 267.511719 238.238281 268.394531 236.726562 269.234375 C 235.214844 270.078125 233.679688 270.875 232.121094 271.625 C 230.5625 272.378906 228.984375 273.085938 227.386719 273.746094 C 225.789062 274.410156 224.171875 275.027344 222.539062 275.59375 C 220.902344 276.164062 219.253906 276.6875 217.589844 277.164062 C 215.925781 277.636719 214.25 278.066406 212.5625 278.445312 C 210.875 278.824219 209.175781 279.152344 207.46875 279.433594 C 205.761719 279.71875 204.046875 279.949219 202.328125 280.132812 C 200.605469 280.316406 198.882812 280.453125 197.15625 280.535156 C 195.425781 280.621094 193.695312 280.65625 191.96875 280.640625 C 190.238281 280.628906 188.507812 280.566406 186.78125 280.453125 C 185.054688 280.339844 183.332031 280.175781 181.617188 279.964844 C 179.898438 279.753906 178.1875 279.492188 176.488281 279.183594 C 174.785156 278.871094 173.09375 278.515625 171.410156 278.105469 C 169.726562 277.699219 168.058594 277.246094 166.402344 276.742188 C 164.746094 276.242188 163.109375 275.691406 161.484375 275.097656 C 159.859375 274.5 158.253906 273.855469 156.664062 273.167969 C 155.078125 272.480469 153.511719 271.746094 151.964844 270.96875 C 150.421875 270.191406 148.898438 269.371094 147.398438 268.503906 C 145.902344 267.640625 144.429688 266.734375 142.980469 265.78125 C 141.535156 264.832031 140.117188 263.84375 138.726562 262.8125 C 137.339844 261.78125 135.980469 260.710938 134.652344 259.605469 C 133.320312 258.496094 132.027344 257.347656 130.761719 256.167969 C 129.5 254.984375 128.273438 253.765625 127.078125 252.511719 C 125.886719 251.257812 124.730469 249.972656 123.609375 248.652344 C 122.492188 247.335938 121.410156 245.984375 120.367188 244.601562 C 119.324219 243.222656 118.324219 241.8125 117.363281 240.371094 C 116.402344 238.933594 115.484375 237.46875 114.605469 235.976562 C 113.726562 234.484375 112.894531 232.972656 112.101562 231.433594 C 111.3125 229.894531 110.566406 228.332031 109.867188 226.75 C 109.164062 225.167969 108.507812 223.566406 107.898438 221.949219 C 107.289062 220.328125 106.726562 218.695312 106.210938 217.042969 C 105.695312 215.390625 105.226562 213.726562 104.808594 212.046875 C 104.386719 210.367188 104.015625 208.679688 103.691406 206.980469 C 103.367188 205.28125 103.09375 203.570312 102.867188 201.855469 C 102.640625 200.140625 102.464844 198.421875 102.335938 196.695312 C 102.210938 194.96875 102.132812 193.242188 102.105469 191.511719 C 102.074219 189.78125 102.097656 188.050781 102.167969 186.324219 C 102.238281 184.59375 102.359375 182.867188 102.527344 181.148438 C 102.699219 179.425781 102.917969 177.707031 103.183594 176 C 103.453125 174.289062 103.769531 172.589844 104.132812 170.898438 C 104.5 169.207031 104.914062 167.527344 105.375 165.859375 C 105.835938 164.191406 106.34375 162.539062 106.902344 160.902344 C 107.457031 159.261719 108.058594 157.640625 108.707031 156.035156 C 109.355469 154.433594 110.050781 152.847656 110.792969 151.285156 C 111.53125 149.71875 112.316406 148.179688 113.144531 146.660156 C 113.972656 145.140625 114.84375 143.644531 115.757812 142.175781 C 116.671875 140.707031 117.625 139.265625 118.621094 137.851562 C 119.617188 136.4375 120.652344 135.050781 121.730469 133.695312 C 122.804688 132.339844 123.917969 131.015625 125.070312 129.726562 C 126.222656 128.433594 127.410156 127.175781 128.632812 125.953125 C 130.726562 123.847656 132.917969 121.851562 135.210938 119.960938 C 137.5 118.074219 139.878906 116.304688 142.347656 114.652344 C 144.8125 113 147.355469 111.472656 149.972656 110.070312 C 152.589844 108.667969 155.269531 107.398438 158.011719 106.265625 C 160.753906 105.128906 163.546875 104.128906 166.390625 103.269531 C 169.230469 102.410156 172.109375 101.691406 175.019531 101.117188 C 177.933594 100.542969 180.867188 100.113281 183.820312 99.828125 C 186.777344 99.542969 189.738281 99.402344 192.707031 99.410156 M 192.707031 95.527344 C 191.160156 95.527344 189.617188 95.566406 188.070312 95.640625 C 186.527344 95.71875 184.984375 95.832031 183.445312 95.984375 C 181.90625 96.132812 180.371094 96.324219 178.84375 96.550781 C 177.3125 96.777344 175.789062 97.042969 174.273438 97.34375 C 172.753906 97.644531 171.246094 97.984375 169.746094 98.359375 C 168.246094 98.734375 166.757812 99.148438 165.277344 99.597656 C 163.796875 100.046875 162.328125 100.53125 160.871094 101.050781 C 159.414062 101.574219 157.972656 102.128906 156.542969 102.722656 C 155.117188 103.3125 153.703125 103.941406 152.304688 104.601562 C 150.90625 105.261719 149.523438 105.957031 148.160156 106.6875 C 146.796875 107.414062 145.453125 108.175781 144.125 108.972656 C 142.796875 109.769531 141.492188 110.59375 140.207031 111.453125 C 138.921875 112.3125 137.65625 113.203125 136.414062 114.125 C 135.171875 115.046875 133.953125 115.996094 132.757812 116.980469 C 131.5625 117.960938 130.390625 118.96875 129.246094 120.007812 C 128.101562 121.046875 126.980469 122.113281 125.886719 123.207031 C 124.792969 124.300781 123.726562 125.421875 122.6875 126.566406 C 121.648438 127.710938 120.640625 128.882812 119.660156 130.078125 C 118.675781 131.273438 117.726562 132.492188 116.804688 133.734375 C 115.882812 134.976562 114.992188 136.242188 114.132812 137.527344 C 113.273438 138.8125 112.449219 140.117188 111.652344 141.445312 C 110.859375 142.773438 110.09375 144.117188 109.367188 145.480469 C 108.636719 146.84375 107.941406 148.226562 107.28125 149.625 C 106.621094 151.023438 105.992188 152.4375 105.402344 153.863281 C 104.808594 155.292969 104.253906 156.734375 103.730469 158.191406 C 103.210938 159.648438 102.726562 161.117188 102.277344 162.597656 C 101.828125 164.078125 101.414062 165.566406 101.039062 167.066406 C 100.664062 168.566406 100.324219 170.074219 100.023438 171.59375 C 99.722656 173.109375 99.457031 174.632812 99.230469 176.164062 C 99.003906 177.691406 98.816406 179.226562 98.664062 180.765625 C 98.511719 182.304688 98.398438 183.847656 98.320312 185.390625 C 98.246094 186.9375 98.207031 188.480469 98.207031 190.027344 C 98.207031 191.574219 98.246094 193.121094 98.320312 194.664062 C 98.398438 196.210938 98.511719 197.753906 98.664062 199.292969 C 98.816406 200.832031 99.003906 202.363281 99.230469 203.894531 C 99.457031 205.425781 99.722656 206.949219 100.023438 208.464844 C 100.324219 209.980469 100.664062 211.488281 101.039062 212.992188 C 101.414062 214.492188 101.828125 215.980469 102.277344 217.460938 C 102.726562 218.941406 103.210938 220.410156 103.730469 221.863281 C 104.253906 223.320312 104.808594 224.761719 105.402344 226.191406 C 105.992188 227.621094 106.621094 229.035156 107.28125 230.433594 C 107.941406 231.832031 108.636719 233.210938 109.367188 234.574219 C 110.09375 235.941406 110.859375 237.285156 111.652344 238.613281 C 112.449219 239.9375 113.273438 241.246094 114.132812 242.53125 C 114.992188 243.816406 115.882812 245.082031 116.804688 246.324219 C 117.726562 247.566406 118.675781 248.785156 119.660156 249.980469 C 120.640625 251.175781 121.648438 252.34375 122.6875 253.492188 C 123.726562 254.636719 124.792969 255.757812 125.886719 256.851562 C 126.980469 257.945312 128.101562 259.011719 129.246094 260.046875 C 130.390625 261.085938 131.5625 262.097656 132.757812 263.078125 C 133.953125 264.058594 135.171875 265.011719 136.414062 265.933594 C 137.65625 266.851562 138.921875 267.742188 140.207031 268.601562 C 141.492188 269.460938 142.796875 270.289062 144.125 271.085938 C 145.453125 271.878906 146.796875 272.640625 148.160156 273.371094 C 149.523438 274.097656 150.90625 274.792969 152.304688 275.457031 C 153.703125 276.117188 155.117188 276.742188 156.542969 277.335938 C 157.972656 277.925781 159.414062 278.484375 160.871094 279.003906 C 162.328125 279.527344 163.796875 280.011719 165.277344 280.460938 C 166.757812 280.910156 168.246094 281.320312 169.746094 281.695312 C 171.246094 282.074219 172.753906 282.410156 174.273438 282.714844 C 175.789062 283.015625 177.3125 283.277344 178.84375 283.507812 C 180.371094 283.734375 181.90625 283.921875 183.445312 284.074219 C 184.984375 284.226562 186.527344 284.339844 188.070312 284.414062 C 189.617188 284.492188 191.160156 284.527344 192.707031 284.527344 C 194.253906 284.527344 195.800781 284.492188 197.34375 284.414062 C 198.890625 284.339844 200.433594 284.226562 201.972656 284.074219 C 203.511719 283.921875 205.042969 283.734375 206.574219 283.507812 C 208.105469 283.277344 209.628906 283.015625 211.144531 282.714844 C 212.660156 282.410156 214.167969 282.074219 215.671875 281.695312 C 217.171875 281.320312 218.660156 280.910156 220.140625 280.460938 C 221.621094 280.011719 223.089844 279.527344 224.542969 279.003906 C 226 278.484375 227.441406 277.925781 228.871094 277.335938 C 230.300781 276.742188 231.714844 276.117188 233.113281 275.457031 C 234.511719 274.792969 235.890625 274.097656 237.253906 273.371094 C 238.621094 272.640625 239.964844 271.878906 241.292969 271.085938 C 242.617188 270.289062 243.925781 269.460938 245.210938 268.601562 C 246.496094 267.742188 247.761719 266.851562 249.003906 265.933594 C 250.246094 265.011719 251.464844 264.058594 252.660156 263.078125 C 253.855469 262.097656 255.023438 261.085938 256.171875 260.046875 C 257.316406 259.011719 258.4375 257.945312 259.53125 256.851562 C 260.625 255.757812 261.691406 254.636719 262.726562 253.492188 C 263.765625 252.34375 264.777344 251.175781 265.757812 249.980469 C 266.738281 248.785156 267.691406 247.566406 268.613281 246.324219 C 269.53125 245.082031 270.421875 243.816406 271.28125 242.53125 C 272.140625 241.246094 272.96875 239.9375 273.765625 238.613281 C 274.558594 237.285156 275.320312 235.941406 276.050781 234.574219 C 276.78125 233.210938 277.472656 231.832031 278.136719 230.433594 C 278.796875 229.035156 279.421875 227.621094 280.015625 226.191406 C 280.605469 224.761719 281.164062 223.320312 281.683594 221.863281 C 282.207031 220.410156 282.691406 218.941406 283.140625 217.460938 C 283.589844 215.980469 284 214.492188 284.375 212.992188 C 284.753906 211.488281 285.089844 209.980469 285.394531 208.464844 C 285.695312 206.949219 285.960938 205.425781 286.1875 203.894531 C 286.414062 202.363281 286.601562 200.832031 286.753906 199.292969 C 286.90625 197.753906 287.019531 196.210938 287.09375 194.664062 C 287.171875 193.121094 287.207031 191.574219 287.207031 190.027344 C 287.207031 188.480469 287.171875 186.9375 287.09375 185.390625 C 287.019531 183.847656 286.90625 182.304688 286.753906 180.765625 C 286.601562 179.226562 286.414062 177.691406 286.1875 176.164062 C 285.960938 174.632812 285.695312 173.109375 285.394531 171.59375 C 285.089844 170.074219 284.753906 168.566406 284.375 167.066406 C 284 165.566406 283.589844 164.078125 283.140625 162.597656 C 282.691406 161.117188 282.207031 159.648438 281.683594 158.191406 C 281.164062 156.734375 280.605469 155.292969 280.015625 153.863281 C 279.421875 152.4375 278.796875 151.023438 278.136719 149.625 C 277.472656 148.226562 276.78125 146.84375 276.050781 145.480469 C 275.320312 144.117188 274.558594 142.773438 273.765625 141.445312 C 272.96875 140.117188 272.140625 138.8125 271.28125 137.527344 C 270.421875 136.242188 269.53125 134.976562 268.613281 133.734375 C 267.691406 132.492188 266.738281 131.273438 265.757812 130.078125 C 264.777344 128.882812 263.765625 127.710938 262.726562 126.566406 C 261.691406 125.421875 260.625 124.300781 259.53125 123.207031 C 258.4375 122.113281 257.316406 121.046875 256.171875 120.007812 C 255.023438 118.96875 253.855469 117.960938 252.660156 116.980469 C 251.464844 115.996094 250.246094 115.046875 249.003906 114.125 C 247.761719 113.203125 246.496094 112.3125 245.210938 111.453125 C 243.925781 110.59375 242.617188 109.769531 241.292969 108.972656 C 239.964844 108.175781 238.621094 107.414062 237.253906 106.6875 C 235.890625 105.957031 234.511719 105.261719 233.113281 104.601562 C 231.714844 103.941406 230.300781 103.3125 228.871094 102.722656 C 227.441406 102.128906 226 101.574219 224.542969 101.050781 C 223.089844 100.53125 221.621094 100.046875 220.140625 99.597656 C 218.660156 99.148438 217.171875 98.734375 215.671875 98.359375 C 214.167969 97.984375 212.660156 97.644531 211.144531 97.34375 C 209.628906 97.042969 208.105469 96.777344 206.574219 96.550781 C 205.042969 96.324219 203.511719 96.132812 201.972656 95.984375 C 200.433594 95.832031 198.890625 95.71875 197.34375 95.640625 C 195.800781 95.566406 194.253906 95.527344 192.707031 95.527344 Z M 192.707031 95.527344 " fill-opacity="1" fill-rule="nonzero"/><path fill="#fdf9ed" d="M 279.441406 190.027344 C 279.441406 191.449219 279.40625 192.867188 279.335938 194.285156 C 279.265625 195.703125 279.164062 197.117188 279.023438 198.53125 C 278.886719 199.941406 278.710938 201.351562 278.503906 202.753906 C 278.292969 204.160156 278.050781 205.558594 277.773438 206.949219 C 277.5 208.339844 277.1875 209.726562 276.84375 211.101562 C 276.496094 212.480469 276.117188 213.847656 275.707031 215.207031 C 275.292969 216.5625 274.851562 217.910156 274.371094 219.25 C 273.894531 220.585938 273.382812 221.910156 272.839844 223.21875 C 272.296875 224.53125 271.722656 225.828125 271.113281 227.113281 C 270.507812 228.394531 269.871094 229.664062 269.199219 230.914062 C 268.53125 232.167969 267.832031 233.402344 267.101562 234.617188 C 266.371094 235.835938 265.613281 237.035156 264.824219 238.214844 C 264.035156 239.394531 263.21875 240.554688 262.375 241.695312 C 261.527344 242.835938 260.65625 243.953125 259.753906 245.050781 C 258.855469 246.148438 257.925781 247.222656 256.972656 248.273438 C 256.019531 249.328125 255.042969 250.355469 254.039062 251.359375 C 253.035156 252.363281 252.007812 253.339844 250.953125 254.292969 C 249.902344 255.246094 248.828125 256.171875 247.730469 257.074219 C 246.632812 257.976562 245.515625 258.847656 244.375 259.695312 C 243.234375 260.539062 242.074219 261.355469 240.894531 262.144531 C 239.714844 262.933594 238.515625 263.691406 237.296875 264.421875 C 236.082031 265.152344 234.847656 265.851562 233.59375 266.519531 C 232.34375 267.191406 231.074219 267.828125 229.792969 268.433594 C 228.507812 269.042969 227.210938 269.617188 225.898438 270.160156 C 224.589844 270.703125 223.265625 271.214844 221.929688 271.691406 C 220.589844 272.167969 219.242188 272.613281 217.886719 273.027344 C 216.527344 273.4375 215.160156 273.816406 213.78125 274.164062 C 212.40625 274.507812 211.019531 274.816406 209.628906 275.09375 C 208.238281 275.371094 206.839844 275.613281 205.433594 275.824219 C 204.03125 276.03125 202.621094 276.203125 201.210938 276.34375 C 199.796875 276.484375 198.382812 276.585938 196.964844 276.65625 C 195.546875 276.726562 194.128906 276.761719 192.707031 276.761719 C 191.289062 276.761719 189.871094 276.726562 188.453125 276.65625 C 187.035156 276.585938 185.621094 276.484375 184.207031 276.34375 C 182.792969 276.203125 181.386719 276.03125 179.980469 275.824219 C 178.578125 275.613281 177.179688 275.371094 175.789062 275.09375 C 174.394531 274.816406 173.011719 274.507812 171.632812 274.164062 C 170.257812 273.816406 168.890625 273.4375 167.53125 273.027344 C 166.171875 272.613281 164.824219 272.167969 163.488281 271.691406 C 162.152344 271.214844 160.828125 270.703125 159.515625 270.160156 C 158.207031 269.617188 156.90625 269.042969 155.625 268.433594 C 154.34375 267.828125 153.074219 267.191406 151.824219 266.519531 C 150.570312 265.851562 149.335938 265.152344 148.117188 264.421875 C 146.902344 263.691406 145.703125 262.933594 144.523438 262.144531 C 143.339844 261.355469 142.179688 260.539062 141.042969 259.695312 C 139.902344 258.847656 138.78125 257.976562 137.683594 257.074219 C 136.589844 256.171875 135.511719 255.246094 134.460938 254.292969 C 133.410156 253.339844 132.382812 252.363281 131.378906 251.359375 C 130.375 250.355469 129.394531 249.328125 128.441406 248.273438 C 127.488281 247.222656 126.5625 246.148438 125.664062 245.050781 C 124.761719 243.953125 123.890625 242.835938 123.042969 241.695312 C 122.199219 240.554688 121.378906 239.394531 120.59375 238.214844 C 119.804688 237.035156 119.042969 235.835938 118.316406 234.617188 C 117.585938 233.402344 116.886719 232.167969 116.214844 230.914062 C 115.546875 229.664062 114.910156 228.394531 114.300781 227.113281 C 113.695312 225.828125 113.121094 224.53125 112.578125 223.21875 C 112.035156 221.910156 111.523438 220.585938 111.046875 219.25 C 110.566406 217.910156 110.121094 216.5625 109.710938 215.207031 C 109.296875 213.847656 108.917969 212.480469 108.574219 211.101562 C 108.230469 209.726562 107.917969 208.339844 107.640625 206.949219 C 107.363281 205.558594 107.121094 204.160156 106.914062 202.753906 C 106.707031 201.351562 106.53125 199.941406 106.394531 198.53125 C 106.253906 197.117188 106.148438 195.703125 106.078125 194.285156 C 106.011719 192.867188 105.976562 191.449219 105.976562 190.027344 C 105.976562 188.609375 106.011719 187.191406 106.078125 185.773438 C 106.148438 184.355469 106.253906 182.941406 106.394531 181.527344 C 106.53125 180.113281 106.707031 178.707031 106.914062 177.300781 C 107.121094 175.898438 107.363281 174.5 107.640625 173.109375 C 107.917969 171.714844 108.230469 170.332031 108.574219 168.953125 C 108.917969 167.578125 109.296875 166.210938 109.710938 164.851562 C 110.121094 163.492188 110.566406 162.144531 111.046875 160.808594 C 111.523438 159.472656 112.035156 158.148438 112.578125 156.835938 C 113.121094 155.527344 113.695312 154.226562 114.300781 152.945312 C 114.910156 151.660156 115.546875 150.394531 116.214844 149.144531 C 116.886719 147.890625 117.585938 146.65625 118.316406 145.4375 C 119.042969 144.222656 119.804688 143.023438 120.59375 141.84375 C 121.378906 140.660156 122.199219 139.5 123.042969 138.363281 C 123.890625 137.222656 124.761719 136.101562 125.664062 135.003906 C 126.5625 133.910156 127.488281 132.832031 128.441406 131.78125 C 129.394531 130.730469 130.375 129.703125 131.378906 128.699219 C 132.382812 127.695312 133.410156 126.714844 134.460938 125.761719 C 135.511719 124.808594 136.589844 123.882812 137.683594 122.984375 C 138.78125 122.082031 139.902344 121.210938 141.042969 120.363281 C 142.179688 119.519531 143.339844 118.699219 144.523438 117.914062 C 145.703125 117.125 146.902344 116.363281 148.117188 115.636719 C 149.335938 114.90625 150.570312 114.207031 151.824219 113.535156 C 153.074219 112.867188 154.34375 112.230469 155.625 111.621094 C 156.90625 111.015625 158.207031 110.441406 159.515625 109.898438 C 160.828125 109.355469 162.152344 108.84375 163.488281 108.367188 C 164.824219 107.886719 166.171875 107.441406 167.53125 107.03125 C 168.890625 106.617188 170.257812 106.238281 171.632812 105.894531 C 173.011719 105.550781 174.394531 105.238281 175.789062 104.960938 C 177.179688 104.683594 178.578125 104.441406 179.980469 104.234375 C 181.386719 104.027344 182.792969 103.851562 184.207031 103.710938 C 185.621094 103.574219 187.035156 103.46875 188.453125 103.398438 C 189.871094 103.328125 191.289062 103.296875 192.707031 103.296875 C 194.128906 103.296875 195.546875 103.328125 196.964844 103.398438 C 198.382812 103.46875 199.796875 103.574219 201.210938 103.710938 C 202.621094 103.851562 204.03125 104.027344 205.433594 104.234375 C 206.839844 104.441406 208.238281 104.683594 209.628906 104.960938 C 211.019531 105.238281 212.40625 105.550781 213.78125 105.894531 C 215.160156 106.238281 216.527344 106.617188 217.886719 107.03125 C 219.242188 107.441406 220.589844 107.886719 221.929688 108.367188 C 223.265625 108.84375 224.589844 109.355469 225.898438 109.898438 C 227.210938 110.441406 228.507812 111.015625 229.792969 111.621094 C 231.074219 112.230469 232.34375 112.867188 233.59375 113.535156 C 234.847656 114.207031 236.082031 114.90625 237.296875 115.636719 C 238.515625 116.363281 239.714844 117.125 240.894531 117.914062 C 242.074219 118.699219 243.234375 119.519531 244.375 120.363281 C 245.515625 121.210938 246.632812 122.082031 247.730469 122.984375 C 248.828125 123.882812 249.902344 124.808594 250.953125 125.761719 C 252.007812 126.714844 253.035156 127.695312 254.039062 128.699219 C 255.042969 129.703125 256.019531 130.730469 256.972656 131.78125 C 257.925781 132.832031 258.855469 133.910156 259.753906 135.003906 C 260.65625 136.101562 261.527344 137.222656 262.375 138.363281 C 263.21875 139.5 264.035156 140.660156 264.824219 141.84375 C 265.613281 143.023438 266.371094 144.222656 267.101562 145.4375 C 267.832031 146.65625 268.53125 147.890625 269.199219 149.144531 C 269.871094 150.394531 270.507812 151.660156 271.113281 152.945312 C 271.722656 154.226562 272.296875 155.527344 272.839844 156.835938 C 273.382812 158.148438 273.894531 159.472656 274.371094 160.808594 C 274.851562 162.144531 275.292969 163.492188 275.707031 164.851562 C 276.117188 166.210938 276.496094 167.578125 276.84375 168.953125 C 277.1875 170.332031 277.5 171.714844 277.773438 173.109375 C 278.050781 174.5 278.292969 175.898438 278.503906 177.300781 C 278.710938 178.707031 278.886719 180.113281 279.023438 181.527344 C 279.164062 182.941406 279.265625 184.355469 279.335938 185.773438 C 279.40625 187.191406 279.441406 188.609375 279.441406 190.027344 Z M 279.441406 190.027344 " fill-opacity="1" fill-rule="nonzero"/><path fill="#fdf9ed" d="M 335.753906 190.027344 C 335.753906 269.027344 271.707031 333.074219 192.707031 333.074219 C 113.710938 333.074219 49.664062 269.027344 49.664062 190.027344 L 95.617188 190.027344 C 95.617188 244.003906 139.089844 287.765625 192.707031 287.765625 C 246.328125 287.765625 289.796875 244.003906 289.796875 190.027344 Z M 335.753906 190.027344 " fill-opacity="1" fill-rule="nonzero"/><g clip-path="url(#fbeecfd004)"><path fill="#064e3b" d="M 256.265625 74.050781 C 247.851562 54.148438 235.804688 36.28125 220.46875 20.941406 C 205.128906 5.605469 187.261719 -6.4375 167.363281 -14.855469 C 146.746094 -23.578125 124.859375 -28 102.3125 -28 C 79.765625 -28 57.878906 -23.578125 37.261719 -14.855469 C 17.359375 -6.4375 -0.507812 5.605469 -15.847656 20.941406 C -31.183594 36.28125 -43.230469 54.148438 -51.644531 74.050781 C -60.367188 94.667969 -64.789062 116.554688 -64.789062 139.101562 C -64.789062 161.648438 -60.367188 183.535156 -51.644531 204.152344 C -43.230469 224.054688 -31.183594 241.917969 -15.847656 257.257812 C -0.507812 272.59375 17.359375 284.640625 37.261719 293.058594 C 57.824219 301.753906 79.652344 306.175781 102.136719 306.199219 L 102.136719 253.980469 C 38.871094 253.882812 -12.570312 202.386719 -12.570312 139.101562 C -12.570312 75.753906 38.964844 24.21875 102.3125 24.21875 C 165.65625 24.21875 217.191406 75.753906 217.191406 139.101562 C 217.191406 180.296875 195.394531 216.488281 162.726562 236.769531 L 200.445312 274.363281 C 207.515625 269.222656 214.207031 263.519531 220.46875 257.257812 C 235.804688 241.917969 247.851562 224.054688 256.265625 204.152344 C 264.988281 183.535156 269.410156 161.648438 269.410156 139.101562 C 269.410156 116.554688 264.988281 94.667969 256.265625 74.050781 " fill-opacity="1" fill-rule="nonzero"/></g><g clip-path="url(#a8cd003142)"><path fill="#064e3b" d="M 306.300781 306.199219 L 102.136719 102.515625 L 102.136719 176.371094 L 232.378906 306.199219 L 306.300781 306.199219 " fill-opacity="1" fill-rule="nonzero"/></g><g clip-path="url(#d65fc2a21a)"><path fill="#064e3b" d="M 306.046875 123.628906 C 297.628906 103.730469 285.585938 85.863281 270.246094 70.523438 C 254.910156 55.1875 237.042969 43.144531 217.140625 34.726562 C 196.523438 26.003906 174.636719 21.582031 152.089844 21.582031 C 129.542969 21.582031 107.65625 26.003906 87.039062 34.726562 C 67.140625 43.144531 49.269531 55.1875 33.933594 70.523438 C 18.59375 85.863281 6.550781 103.730469 -1.867188 123.628906 C -10.585938 144.25 -15.007812 166.136719 -15.007812 188.683594 C -15.007812 211.226562 -10.585938 233.113281 -1.867188 253.730469 C 6.550781 273.632812 18.59375 291.5 33.933594 306.839844 C 49.269531 322.175781 67.140625 334.222656 87.039062 342.636719 C 107.601562 351.335938 129.429688 355.753906 151.914062 355.777344 L 151.914062 303.5625 C 88.648438 303.464844 37.210938 251.96875 37.210938 188.683594 C 37.210938 125.335938 88.746094 73.800781 152.089844 73.800781 C 215.433594 73.800781 266.972656 125.335938 266.972656 188.683594 C 266.972656 229.875 245.171875 266.070312 212.507812 286.351562 L 250.222656 323.945312 C 257.292969 318.804688 263.984375 313.101562 270.246094 306.839844 C 285.585938 291.5 297.628906 273.632812 306.046875 253.730469 C 314.765625 233.113281 319.1875 211.226562 319.1875 188.683594 C 319.1875 166.136719 314.765625 144.25 306.046875 123.628906 " fill-opacity="1" fill-rule="nonzero"/></g><g clip-path="url(#4be3244cb1)"><path fill="#064e3b" d="M 356.082031 355.777344 L 151.914062 152.097656 L 151.914062 225.953125 L 282.160156 355.777344 L 356.082031 355.777344 " fill-opacity="1" fill-rule="nonzero"/></g><g clip-path="url(#57ca1fb5cd)"><path fill="#052e16" d="M 192.03125 199.101562 L 192.109375 199.074219 C 192.109375 199.074219 193.421875 199.613281 193.824219 198.1875 C 217.625 179.316406 259.113281 173.761719 271.300781 172.5 C 271.300781 172.5 257.078125 197.394531 257.078125 197.394531 C 256.574219 198.269531 256.882812 199.386719 257.757812 199.890625 C 258.636719 200.386719 259.753906 200.085938 260.25 199.207031 L 276.214844 171.269531 C 276.550781 170.679688 276.539062 169.957031 276.175781 169.386719 C 275.816406 168.816406 275.175781 168.488281 274.5 168.539062 C 274.5 168.539062 221.074219 172.417969 192.09375 194.898438 C 163.125 172.40625 109.71875 168.539062 109.71875 168.539062 C 109.042969 168.488281 108.398438 168.816406 108.039062 169.386719 C 107.679688 169.957031 107.664062 170.679688 108 171.269531 L 123.964844 199.207031 C 124.464844 200.085938 125.582031 200.386719 126.457031 199.890625 C 127.335938 199.386719 127.640625 198.269531 127.140625 197.394531 L 112.914062 172.5 C 125.105469 173.761719 166.617188 179.3125 190.402344 198.21875 C 190.753906 199.402344 191.742188 199.191406 192.03125 199.101562 Z M 192.03125 199.101562 " fill-opacity="1" fill-rule="evenodd"/></g><path fill="#052e16" d="M 135.476562 164.867188 C 135.476562 164.867188 150.632812 167.167969 165.695312 174.066406 C 175.585938 178.597656 185.476562 185.101562 190.835938 194.328125 C 191.253906 195.046875 192.171875 195.292969 192.890625 194.875 C 193.605469 194.457031 193.851562 193.535156 193.433594 192.820312 C 187.773438 183.070312 177.394531 176.121094 166.945312 171.332031 C 151.484375 164.253906 135.929688 161.898438 135.929688 161.898438 C 135.105469 161.773438 134.34375 162.335938 134.21875 163.160156 C 134.09375 163.976562 134.65625 164.746094 135.476562 164.867188 Z M 135.476562 164.867188 " fill-opacity="1" fill-rule="evenodd"/><path fill="#052e16" d="M 248.320312 161.898438 C 248.320312 161.898438 232.765625 164.253906 217.304688 171.332031 C 206.851562 176.121094 196.476562 183.070312 190.8125 192.820312 C 190.394531 193.535156 190.640625 194.457031 191.359375 194.875 C 192.074219 195.292969 192.996094 195.046875 193.414062 194.328125 C 198.773438 185.101562 208.660156 178.597656 218.554688 174.066406 C 233.617188 167.167969 248.773438 164.867188 248.773438 164.867188 C 249.589844 164.746094 250.15625 163.976562 250.027344 163.160156 C 249.90625 162.335938 249.140625 161.773438 248.320312 161.898438 Z M 248.320312 161.898438 " fill-opacity="1" fill-rule="evenodd"/><g clip-path="url(#ae3dd3dff7)"><path fill="#052e16" d="M 149.601562 152.894531 C 149.601562 152.894531 162.507812 158.949219 174.171875 168.972656 C 181.894531 175.617188 189.089844 183.992188 191.542969 193.515625 C 191.621094 193.832031 191.941406 194.023438 192.257812 193.941406 C 192.574219 193.859375 192.761719 193.539062 192.679688 193.226562 C 190.167969 183.476562 182.839844 174.878906 174.9375 168.082031 C 163.148438 157.953125 150.097656 151.828125 150.097656 151.828125 C 149.804688 151.6875 149.457031 151.820312 149.320312 152.109375 C 149.179688 152.40625 149.308594 152.757812 149.601562 152.894531 Z M 149.601562 152.894531 " fill-opacity="1" fill-rule="evenodd"/></g><g clip-path="url(#6ef5a94ced)"><path fill="#052e16" d="M 234.148438 151.828125 C 234.148438 151.828125 221.097656 157.953125 209.308594 168.082031 C 201.40625 174.878906 194.082031 183.476562 191.566406 193.226562 C 191.484375 193.539062 191.671875 193.859375 191.992188 193.941406 C 192.304688 194.023438 192.625 193.832031 192.707031 193.515625 C 195.160156 183.992188 202.351562 175.617188 210.074219 168.972656 C 221.738281 158.949219 234.644531 152.894531 234.644531 152.894531 C 234.9375 152.757812 235.066406 152.40625 234.925781 152.109375 C 234.789062 151.820312 234.441406 151.6875 234.148438 151.828125 Z M 234.148438 151.828125 " fill-opacity="1" fill-rule="evenodd"/></g></g></g></svg>